<?xml version="1.0" encoding="UTF-8"?>
<svg
  id="uuid-4e8f1729-8b0f-429a-8c15-a44fd82150be"
  data-name="Vrstva 2"
  xmlns="http://www.w3.org/2000/svg"
  xmlns:xlink="http://www.w3.org/1999/xlink"
  viewBox="0 0 298.63 299.55"
>
  <defs>
    <radialGradient
      id="uuid-a7fd6e0d-209e-48a5-ac25-7cfc26af133e"
      data-name="Nepojmenovaný přechod 31"
      cx="149.32"
      cy="150.24"
      fx="149.32"
      fy="150.24"
      r="143.32"
      gradientUnits="userSpaceOnUse"
    >
      <stop offset="0" stop-color="#204c7a" />
      <stop offset="1" stop-color="#18345a" />
    </radialGradient>
    <clipPath id="uuid-bb257f6e-e833-41fd-b93d-d87ecdaf1d2b">
      <ellipse
        cx="151.25"
        cy="166.93"
        rx="134.75"
        ry="118.27"
        fill="none"
        stroke-width="0"
      />
    </clipPath>
    <linearGradient
      id="uuid-04cd2892-6ce5-4e18-bf73-dae4711aa5a7"
      data-name="Nepojmenovaný přechod 66"
      x1="-789.29"
      y1="-291.85"
      x2="-302.2"
      y2="-291.85"
      gradientTransform="translate(226.5 1043.66) rotate(54.82)"
      gradientUnits="userSpaceOnUse"
    >
      <stop offset="0" stop-color="#40beea" />
      <stop offset=".05" stop-color="#37abdd" />
      <stop offset=".14" stop-color="#2d95cf" />
      <stop offset=".24" stop-color="#2684c4" />
      <stop offset=".36" stop-color="#2078bc" />
      <stop offset=".53" stop-color="#1d71b8" />
      <stop offset="1" stop-color="#1d70b7" />
    </linearGradient>
    <linearGradient
      id="uuid-67b5f680-2ee3-4556-85df-64c629e7e1e7"
      data-name="Nepojmenovaný přechod 62"
      x1="170.22"
      y1="89.78"
      x2="211.17"
      y2="139.65"
      gradientUnits="userSpaceOnUse"
    >
      <stop offset="0" stop-color="#33beec" />
      <stop offset="1" stop-color="#2288c9" />
    </linearGradient>
    <clipPath id="uuid-6afe6a33-e69d-45c4-856c-227797580958">
      <ellipse
        cx="151.25"
        cy="166.93"
        rx="134.75"
        ry="118.27"
        fill="none"
        stroke-width="0"
      />
    </clipPath>
  </defs>
  <g id="uuid-423d30de-e167-47ca-a28c-436be2e8290a" data-name="Vrstva 1">
    <g>
      <circle
        cx="149.32"
        cy="150.24"
        r="143.32"
        fill="url(#uuid-a7fd6e0d-209e-48a5-ac25-7cfc26af133e)"
        stroke="#1a2f50"
        stroke-miterlimit="10"
        stroke-width="12"
      />
      <g clip-path="url(#uuid-bb257f6e-e833-41fd-b93d-d87ecdaf1d2b)">
        <path
          d="M313.91,632.01C182.3,713.45.4,685.82-92.39,570.31c-92.78-115.51-61.31-275.17,70.3-356.61,131.61-81.44,313.51-53.81,406.3,61.7,92.78,115.51,61.31,275.17-70.3,356.61Z"
          fill="url(#uuid-04cd2892-6ce5-4e18-bf73-dae4711aa5a7)"
          stroke="#fff"
          stroke-miterlimit="10"
          stroke-width="12"
        />
      </g>
      <g>
        <polygon
          points="105.17 80.29 101.39 65.6 87.86 62.89 101.27 58.99 101.27 58.99 101.27 58.99 105.03 45.48 109.35 59.46 122.49 63.37 109.04 66.01 105.17 80.29"
          fill="#fff"
          stroke-width="0"
        />
        <polygon
          points="88.37 117.38 85.85 107.61 76.85 105.8 85.77 103.2 85.77 103.2 85.77 103.2 88.27 94.22 91.14 103.52 99.89 106.12 90.94 107.88 88.37 117.38"
          fill="#fff"
          stroke-width="0"
        />
        <polygon
          points="57.62 81.63 56.12 75.82 50.77 74.74 56.07 73.2 56.07 73.2 56.07 73.2 57.56 67.86 59.27 73.39 64.46 74.93 59.15 75.98 57.62 81.63"
          fill="#fff"
          stroke-width="0"
        />
        <polygon
          points="50.99 146.5 46.93 130.74 32.42 127.82 46.81 123.64 46.81 123.64 46.81 123.64 50.84 109.15 55.47 124.15 69.57 128.34 55.14 131.17 50.99 146.5"
          fill="#27ace2"
          stroke-width="0"
        />
        <polygon
          points="92.15 150.61 90.19 143.01 83.19 141.6 90.13 139.58 90.13 139.58 90.13 139.58 92.08 132.6 94.31 139.83 101.11 141.85 94.15 143.22 92.15 150.61"
          fill="#1c87c9"
          stroke-width="0"
        />
        <polygon
          points="44.58 83.21 44.09 81.71 42.28 81.45 44.08 81.03 44.08 81.03 44.08 81.03 44.6 79.65 45.16 81.07 46.92 81.45 45.11 81.74 44.58 83.21"
          fill="#1c87c9"
          stroke-width="0"
        />
        <polygon
          points="30.13 103.27 29.64 101.77 27.83 101.51 29.63 101.1 29.63 101.1 29.63 101.1 30.15 99.71 30.72 101.14 32.47 101.52 30.67 101.8 30.13 103.27"
          fill="#1c87c9"
          stroke-width="0"
        />
        <polygon
          points="247.47 166.59 246.98 165.1 245.17 164.84 246.98 164.42 246.98 164.42 246.98 164.42 247.5 163.04 248.06 164.46 249.82 164.84 248.01 165.13 247.47 166.59"
          fill="#1c87c9"
          stroke-width="0"
        />
        <polygon
          points="42.68 160.96 42.19 159.46 40.38 159.2 42.18 158.79 42.18 158.79 42.18 158.79 42.7 157.4 43.27 158.82 45.02 159.2 43.22 159.49 42.68 160.96"
          fill="#1c87c9"
          stroke-width="0"
        />
      </g>
      <path
        d="M127.64,172.69s-5.71-.78-20.29.71c-12.37,1.26-9.62,1.98-25.81,4.27-10.19,1.45-16.86,1.95-19.93,6.76-.43.67-1.45,2.32-.89,3.74,1,2.51,6.25,2.53,12.28,2.49,12.79-.08,24.14-.3,31.5.18,8,.52,8.33,1.67,12.81,1.96.42.03,1.5.09,2.67.71,2.14,1.14,2.93,3.29,3.03,3.56,1.01,2.87-.53,5.63-1.07,6.59-1.18,2.11-2.85,3.51-10.5,7.3-4.47,2.21-8.64,5.13-13.35,6.76-.92.32-3.51,1.18-4.98,3.56-.32.52-1.1,1.78-.89,3.03.43,2.49,4.65,3.79,8.37,4.63,9.07,2.05,15.84,1.54,25.1,1.6.79,0,5.33.18,14.42.53,14.43.56,18.75.82,23.49,1.25,10.61.95,14.31,1.9,15.84,2.31,10.68,2.91,14.3,6.84,15.66,8.54,1.31,1.64,3.19,3.98,3.38,7.3.29,4.94-3.33,8.47-6.05,11.92-5.62,7.11-11.66,19.33-9.32,22.84,6.2,9.31,76.1-35.45,85.32-52.92,1.21-2.29,4.23-8.01,1.96-12.64-.96-1.95-2.57-3.15-4.98-4.45-8.66-4.67-17.84-5.77-25.99-6.23-8.59-.49-6.87.22-14.03-.28-15.29-1.07-14.84-3.73-24.55-3.3-4.32.19-9.32.93-15.52-.99-2.24-.69-3.96-1.53-5.16-2.19-1.87-1.03-5.88-3.2-8.19-7.12-2.63-4.47-.31-7.08-2.67-9.61-2.65-2.85-6.15-2.17-18.51-1.96-4.41.08-12.4.21-21.71-.18,0,0-4.1.47-12.1-.36-8.76-.9-6.41-.73-9.61-1.07-1.08-.11-2.79.12-3.2-.71-.45-.9.82-2.39,1.25-2.85,4.38-4.73,22.25-5.74,22.25-5.7Z"
        fill="#fbfdfd"
        stroke-width="0"
      />
      <g>
        <path
          d="M249.27,116.15c0,35.9-57.95,97.69-60.65,97.68-1.9,0-60.08-61.78-60.08-97.68s27.03-65.01,60.36-65.01,60.36,29.11,60.36,65.01Z"
          fill="#fff"
          stroke="#1a2f50"
          stroke-miterlimit="10"
          stroke-width="10"
        />
        <circle
          cx="190.72"
          cy="114.75"
          r="32.96"
          fill="url(#uuid-67b5f680-2ee3-4556-85df-64c629e7e1e7)"
          stroke-width="0"
        />
      </g>
      <circle
        cx="149.32"
        cy="149.32"
        r="143.32"
        fill="none"
        stroke="#1a2f50"
        stroke-miterlimit="10"
        stroke-width="12"
      />
      <path
        d="M105.31,182.28c.78-.11,1.57-.23,2.35-.34"
        fill="#fbfdfd"
        stroke-width="0"
      />
    </g>
    <g>
      <circle
        cx="149.32"
        cy="150.24"
        r="143.32"
        fill="url(#uuid-a7fd6e0d-209e-48a5-ac25-7cfc26af133e)"
        stroke="#1a2f50"
        stroke-miterlimit="10"
        stroke-width="12"
      />
      <g clip-path="url(#uuid-6afe6a33-e69d-45c4-856c-227797580958)">
        <path
          d="M313.91,632.01C182.3,713.45.4,685.82-92.39,570.31c-92.78-115.51-61.31-275.17,70.3-356.61,131.61-81.44,313.51-53.81,406.3,61.7,92.78,115.51,61.31,275.17-70.3,356.61Z"
          fill="url(#uuid-04cd2892-6ce5-4e18-bf73-dae4711aa5a7)"
          stroke="#fff"
          stroke-miterlimit="10"
          stroke-width="12"
        />
      </g>
      <g>
        <polygon
          points="105.17 80.29 101.39 65.6 87.86 62.89 101.27 58.99 101.27 58.99 101.27 58.99 105.03 45.48 109.35 59.46 122.49 63.37 109.04 66.01 105.17 80.29"
          fill="#fff"
          stroke-width="0"
        />
        <polygon
          points="88.37 117.38 85.85 107.61 76.85 105.8 85.77 103.2 85.77 103.2 85.77 103.2 88.27 94.22 91.14 103.52 99.89 106.12 90.94 107.88 88.37 117.38"
          fill="#fff"
          stroke-width="0"
        />
        <polygon
          points="57.62 81.63 56.12 75.82 50.77 74.74 56.07 73.2 56.07 73.2 56.07 73.2 57.56 67.86 59.27 73.39 64.46 74.93 59.15 75.98 57.62 81.63"
          fill="#fff"
          stroke-width="0"
        />
        <polygon
          points="50.99 146.5 46.93 130.74 32.42 127.82 46.81 123.64 46.81 123.64 46.81 123.64 50.84 109.15 55.47 124.15 69.57 128.34 55.14 131.17 50.99 146.5"
          fill="#27ace2"
          stroke-width="0"
        />
        <polygon
          points="92.15 150.61 90.19 143.01 83.19 141.6 90.13 139.58 90.13 139.58 90.13 139.58 92.08 132.6 94.31 139.83 101.11 141.85 94.15 143.22 92.15 150.61"
          fill="#1c87c9"
          stroke-width="0"
        />
        <polygon
          points="44.58 83.21 44.09 81.71 42.28 81.45 44.08 81.03 44.08 81.03 44.08 81.03 44.6 79.65 45.16 81.07 46.92 81.45 45.11 81.74 44.58 83.21"
          fill="#1c87c9"
          stroke-width="0"
        />
        <polygon
          points="30.13 103.27 29.64 101.77 27.83 101.51 29.63 101.1 29.63 101.1 29.63 101.1 30.15 99.71 30.72 101.14 32.47 101.52 30.67 101.8 30.13 103.27"
          fill="#1c87c9"
          stroke-width="0"
        />
        <polygon
          points="247.47 166.59 246.98 165.1 245.17 164.84 246.98 164.42 246.98 164.42 246.98 164.42 247.5 163.04 248.06 164.46 249.82 164.84 248.01 165.13 247.47 166.59"
          fill="#1c87c9"
          stroke-width="0"
        />
        <polygon
          points="42.68 160.96 42.19 159.46 40.38 159.2 42.18 158.79 42.18 158.79 42.18 158.79 42.7 157.4 43.27 158.82 45.02 159.2 43.22 159.49 42.68 160.96"
          fill="#1c87c9"
          stroke-width="0"
        />
      </g>
      <path
        d="M127.64,172.69s-5.71-.78-20.29.71c-12.37,1.26-9.62,1.98-25.81,4.27-10.19,1.45-16.86,1.95-19.93,6.76-.43.67-1.45,2.32-.89,3.74,1,2.51,6.25,2.53,12.28,2.49,12.79-.08,24.14-.3,31.5.18,8,.52,8.33,1.67,12.81,1.96.42.03,1.5.09,2.67.71,2.14,1.14,2.93,3.29,3.03,3.56,1.01,2.87-.53,5.63-1.07,6.59-1.18,2.11-2.85,3.51-10.5,7.3-4.47,2.21-8.64,5.13-13.35,6.76-.92.32-3.51,1.18-4.98,3.56-.32.52-1.1,1.78-.89,3.03.43,2.49,4.65,3.79,8.37,4.63,9.07,2.05,15.84,1.54,25.1,1.6.79,0,5.33.18,14.42.53,14.43.56,18.75.82,23.49,1.25,10.61.95,14.31,1.9,15.84,2.31,10.68,2.91,14.3,6.84,15.66,8.54,1.31,1.64,3.19,3.98,3.38,7.3.29,4.94-3.33,8.47-6.05,11.92-5.62,7.11-11.66,19.33-9.32,22.84,6.2,9.31,76.1-35.45,85.32-52.92,1.21-2.29,4.23-8.01,1.96-12.64-.96-1.95-2.57-3.15-4.98-4.45-8.66-4.67-17.84-5.77-25.99-6.23-8.59-.49-6.87.22-14.03-.28-15.29-1.07-14.84-3.73-24.55-3.3-4.32.19-9.32.93-15.52-.99-2.24-.69-3.96-1.53-5.16-2.19-1.87-1.03-5.88-3.2-8.19-7.12-2.63-4.47-.31-7.08-2.67-9.61-2.65-2.85-6.15-2.17-18.51-1.96-4.41.08-12.4.21-21.71-.18,0,0-4.1.47-12.1-.36-8.76-.9-6.41-.73-9.61-1.07-1.08-.11-2.79.12-3.2-.71-.45-.9.82-2.39,1.25-2.85,4.38-4.73,22.25-5.74,22.25-5.7Z"
        fill="#fbfdfd"
        stroke-width="0"
      />
      <g>
        <path
          d="M249.27,116.15c0,35.9-57.95,97.69-60.65,97.68-1.9,0-60.08-61.78-60.08-97.68s27.03-65.01,60.36-65.01,60.36,29.11,60.36,65.01Z"
          fill="#fff"
          stroke="#1a2f50"
          stroke-miterlimit="10"
          stroke-width="10"
        />
        <circle
          cx="190.72"
          cy="114.75"
          r="32.96"
          fill="url(#uuid-67b5f680-2ee3-4556-85df-64c629e7e1e7)"
          stroke-width="0"
        />
      </g>
      <circle
        cx="149.32"
        cy="149.32"
        r="143.32"
        fill="none"
        stroke="#1a2f50"
        stroke-miterlimit="10"
        stroke-width="12"
      />
      <path
        d="M105.31,182.28c.78-.11,1.57-.23,2.35-.34"
        fill="#fbfdfd"
        stroke-width="0"
      />
    </g>
  </g>
</svg>
