<?xml version="1.0" encoding="UTF-8"?><svg
  id="b"
  xmlns="http://www.w3.org/2000/svg"
  xmlns:xlink="http://www.w3.org/1999/xlink"
  viewBox="0 0 1759.96 299.55"
>
  <defs>
    <radialGradient
      id="d"
      cx="149.32"
      cy="150.24"
      fx="149.32"
      fy="150.24"
      r="143.32"
      gradientUnits="userSpaceOnUse"
    >
      <stop offset="0" stop-color="#204c7a" />
      <stop offset="1" stop-color="#18345a" />
    </radialGradient>
    <clipPath id="e">
      <ellipse
        cx="151.25"
        cy="166.93"
        rx="134.75"
        ry="118.27"
        fill="none"
        stroke-width="0"
      />
    </clipPath>
    <linearGradient
      id="f"
      x1="-789.29"
      y1="-291.85"
      x2="-302.2"
      y2="-291.85"
      gradientTransform="translate(226.5 1043.66) rotate(54.82)"
      gradientUnits="userSpaceOnUse"
    >
      <stop offset="0" stop-color="#40beea" />
      <stop offset=".05" stop-color="#37abdd" />
      <stop offset=".14" stop-color="#2d95cf" />
      <stop offset=".24" stop-color="#2684c4" />
      <stop offset=".36" stop-color="#2078bc" />
      <stop offset=".53" stop-color="#1d71b8" />
      <stop offset="1" stop-color="#1d70b7" />
    </linearGradient>
    <linearGradient
      id="g"
      x1="170.22"
      y1="89.78"
      x2="211.17"
      y2="139.65"
      gradientUnits="userSpaceOnUse"
    >
      <stop offset="0" stop-color="#33beec" />
      <stop offset="1" stop-color="#2288c9" />
    </linearGradient>
    <clipPath id="h">
      <ellipse
        cx="151.25"
        cy="166.93"
        rx="134.75"
        ry="118.27"
        fill="none"
        stroke-width="0"
      />
    </clipPath>
  </defs>
  <g id="c">
    <circle
      cx="149.32"
      cy="150.24"
      r="143.32"
      fill="url(#d)"
      stroke="#1a2f50"
      stroke-miterlimit="10"
      stroke-width="12"
    />
    <g clip-path="url(#e)">
      <path
        d="M313.91,632.01C182.3,713.45.4,685.82-92.39,570.31c-92.78-115.51-61.31-275.17,70.3-356.61,131.61-81.44,313.51-53.81,406.3,61.7,92.78,115.51,61.31,275.17-70.3,356.61Z"
        fill="url(#f)"
        stroke="#fff"
        stroke-miterlimit="10"
        stroke-width="12"
      />
    </g>
    <polygon
      points="105.17 80.29 101.39 65.6 87.86 62.89 101.27 58.99 101.27 58.99 101.27 58.99 105.03 45.48 109.35 59.46 122.49 63.37 109.04 66.01 105.17 80.29"
      fill="#fff"
      stroke-width="0"
    />
    <polygon
      points="88.37 117.38 85.85 107.61 76.85 105.8 85.77 103.2 85.77 103.2 85.77 103.2 88.27 94.22 91.14 103.52 99.89 106.12 90.94 107.88 88.37 117.38"
      fill="#fff"
      stroke-width="0"
    />
    <polygon
      points="57.62 81.63 56.12 75.82 50.77 74.74 56.07 73.2 56.07 73.2 56.07 73.2 57.56 67.86 59.27 73.39 64.46 74.93 59.15 75.98 57.62 81.63"
      fill="#fff"
      stroke-width="0"
    />
    <polygon
      points="50.99 146.5 46.93 130.74 32.42 127.82 46.81 123.64 46.81 123.64 46.81 123.64 50.84 109.15 55.47 124.15 69.57 128.34 55.14 131.17 50.99 146.5"
      fill="#27ace2"
      stroke-width="0"
    />
    <polygon
      points="92.15 150.61 90.19 143.01 83.19 141.6 90.13 139.58 90.13 139.58 90.13 139.58 92.08 132.6 94.31 139.83 101.11 141.85 94.15 143.22 92.15 150.61"
      fill="#1c87c9"
      stroke-width="0"
    />
    <polygon
      points="44.58 83.21 44.09 81.71 42.28 81.45 44.08 81.03 44.08 81.03 44.08 81.03 44.6 79.65 45.16 81.07 46.92 81.45 45.11 81.74 44.58 83.21"
      fill="#1c87c9"
      stroke-width="0"
    />
    <polygon
      points="30.13 103.27 29.64 101.77 27.83 101.51 29.63 101.1 29.63 101.1 29.63 101.1 30.15 99.71 30.72 101.14 32.47 101.52 30.67 101.8 30.13 103.27"
      fill="#1c87c9"
      stroke-width="0"
    />
    <polygon
      points="247.47 166.59 246.98 165.1 245.17 164.84 246.98 164.42 246.98 164.42 246.98 164.42 247.5 163.04 248.06 164.46 249.82 164.84 248.01 165.13 247.47 166.59"
      fill="#1c87c9"
      stroke-width="0"
    />
    <polygon
      points="42.68 160.96 42.19 159.46 40.38 159.2 42.18 158.79 42.18 158.79 42.18 158.79 42.7 157.4 43.27 158.82 45.02 159.2 43.22 159.49 42.68 160.96"
      fill="#1c87c9"
      stroke-width="0"
    />
    <path
      d="M127.64,172.69s-5.71-.78-20.29.71c-12.37,1.26-9.62,1.98-25.81,4.27-10.19,1.45-16.86,1.95-19.93,6.76-.43.67-1.45,2.32-.89,3.74,1,2.51,6.25,2.53,12.28,2.49,12.79-.08,24.14-.3,31.5.18,8,.52,8.33,1.67,12.81,1.96.42.03,1.5.09,2.67.71,2.14,1.14,2.93,3.29,3.03,3.56,1.01,2.87-.53,5.63-1.07,6.59-1.18,2.11-2.85,3.51-10.5,7.3-4.47,2.21-8.64,5.13-13.35,6.76-.92.32-3.51,1.18-4.98,3.56-.32.52-1.1,1.78-.89,3.03.43,2.49,4.65,3.79,8.37,4.63,9.07,2.05,15.84,1.54,25.1,1.6.79,0,5.33.18,14.42.53,14.43.56,18.75.82,23.49,1.25,10.61.95,14.31,1.9,15.84,2.31,10.68,2.91,14.3,6.84,15.66,8.54,1.31,1.64,3.19,3.98,3.38,7.3.29,4.94-3.33,8.47-6.05,11.92-5.62,7.11-11.66,19.33-9.32,22.84,6.2,9.31,76.1-35.45,85.32-52.92,1.21-2.29,4.23-8.01,1.96-12.64-.96-1.95-2.57-3.15-4.98-4.45-8.66-4.67-17.84-5.77-25.99-6.23-8.59-.49-6.87.22-14.03-.28-15.29-1.07-14.84-3.73-24.55-3.3-4.32.19-9.32.93-15.52-.99-2.24-.69-3.96-1.53-5.16-2.19-1.87-1.03-5.88-3.2-8.19-7.12-2.63-4.47-.31-7.08-2.67-9.61-2.65-2.85-6.15-2.17-18.51-1.96-4.41.08-12.4.21-21.71-.18,0,0-4.1.47-12.1-.36-8.76-.9-6.41-.73-9.61-1.07-1.08-.11-2.79.12-3.2-.71-.45-.9.82-2.39,1.25-2.85,4.38-4.73,22.25-5.74,22.25-5.7Z"
      fill="#fbfdfd"
      stroke-width="0"
    />
    <path
      d="M249.27,116.15c0,35.9-57.95,97.69-60.65,97.68-1.9,0-60.08-61.78-60.08-97.68s27.03-65.01,60.36-65.01,60.36,29.11,60.36,65.01Z"
      fill="#fff"
      stroke="#1a2f50"
      stroke-miterlimit="10"
      stroke-width="10"
    />
    <circle cx="190.72" cy="114.75" r="32.96" fill="url(#g)" stroke-width="0" />
    <circle
      cx="149.32"
      cy="149.32"
      r="143.32"
      fill="none"
      stroke="#1a2f50"
      stroke-miterlimit="10"
      stroke-width="12"
    />
    <path
      d="M105.31,182.28c.78-.11,1.57-.23,2.35-.34"
      fill="#fbfdfd"
      stroke-width="0"
    />
    <circle
      cx="149.32"
      cy="150.24"
      r="143.32"
      fill="url(#d)"
      stroke="#1a2f50"
      stroke-miterlimit="10"
      stroke-width="12"
    />
    <g clip-path="url(#h)">
      <path
        d="M313.91,632.01C182.3,713.45.4,685.82-92.39,570.31c-92.78-115.51-61.31-275.17,70.3-356.61,131.61-81.44,313.51-53.81,406.3,61.7,92.78,115.51,61.31,275.17-70.3,356.61Z"
        fill="url(#f)"
        stroke="#fff"
        stroke-miterlimit="10"
        stroke-width="12"
      />
    </g>
    <polygon
      points="105.17 80.29 101.39 65.6 87.86 62.89 101.27 58.99 101.27 58.99 101.27 58.99 105.03 45.48 109.35 59.46 122.49 63.37 109.04 66.01 105.17 80.29"
      fill="#fff"
      stroke-width="0"
    />
    <polygon
      points="88.37 117.38 85.85 107.61 76.85 105.8 85.77 103.2 85.77 103.2 85.77 103.2 88.27 94.22 91.14 103.52 99.89 106.12 90.94 107.88 88.37 117.38"
      fill="#fff"
      stroke-width="0"
    />
    <polygon
      points="57.62 81.63 56.12 75.82 50.77 74.74 56.07 73.2 56.07 73.2 56.07 73.2 57.56 67.86 59.27 73.39 64.46 74.93 59.15 75.98 57.62 81.63"
      fill="#fff"
      stroke-width="0"
    />
    <polygon
      points="50.99 146.5 46.93 130.74 32.42 127.82 46.81 123.64 46.81 123.64 46.81 123.64 50.84 109.15 55.47 124.15 69.57 128.34 55.14 131.17 50.99 146.5"
      fill="#27ace2"
      stroke-width="0"
    />
    <polygon
      points="92.15 150.61 90.19 143.01 83.19 141.6 90.13 139.58 90.13 139.58 90.13 139.58 92.08 132.6 94.31 139.83 101.11 141.85 94.15 143.22 92.15 150.61"
      fill="#1c87c9"
      stroke-width="0"
    />
    <polygon
      points="44.58 83.21 44.09 81.71 42.28 81.45 44.08 81.03 44.08 81.03 44.08 81.03 44.6 79.65 45.16 81.07 46.92 81.45 45.11 81.74 44.58 83.21"
      fill="#1c87c9"
      stroke-width="0"
    />
    <polygon
      points="30.13 103.27 29.64 101.77 27.83 101.51 29.63 101.1 29.63 101.1 29.63 101.1 30.15 99.71 30.72 101.14 32.47 101.52 30.67 101.8 30.13 103.27"
      fill="#1c87c9"
      stroke-width="0"
    />
    <polygon
      points="247.47 166.59 246.98 165.1 245.17 164.84 246.98 164.42 246.98 164.42 246.98 164.42 247.5 163.04 248.06 164.46 249.82 164.84 248.01 165.13 247.47 166.59"
      fill="#1c87c9"
      stroke-width="0"
    />
    <polygon
      points="42.68 160.96 42.19 159.46 40.38 159.2 42.18 158.79 42.18 158.79 42.18 158.79 42.7 157.4 43.27 158.82 45.02 159.2 43.22 159.49 42.68 160.96"
      fill="#1c87c9"
      stroke-width="0"
    />
    <path
      d="M127.64,172.69s-5.71-.78-20.29.71c-12.37,1.26-9.62,1.98-25.81,4.27-10.19,1.45-16.86,1.95-19.93,6.76-.43.67-1.45,2.32-.89,3.74,1,2.51,6.25,2.53,12.28,2.49,12.79-.08,24.14-.3,31.5.18,8,.52,8.33,1.67,12.81,1.96.42.03,1.5.09,2.67.71,2.14,1.14,2.93,3.29,3.03,3.56,1.01,2.87-.53,5.63-1.07,6.59-1.18,2.11-2.85,3.51-10.5,7.3-4.47,2.21-8.64,5.13-13.35,6.76-.92.32-3.51,1.18-4.98,3.56-.32.52-1.1,1.78-.89,3.03.43,2.49,4.65,3.79,8.37,4.63,9.07,2.05,15.84,1.54,25.1,1.6.79,0,5.33.18,14.42.53,14.43.56,18.75.82,23.49,1.25,10.61.95,14.31,1.9,15.84,2.31,10.68,2.91,14.3,6.84,15.66,8.54,1.31,1.64,3.19,3.98,3.38,7.3.29,4.94-3.33,8.47-6.05,11.92-5.62,7.11-11.66,19.33-9.32,22.84,6.2,9.31,76.1-35.45,85.32-52.92,1.21-2.29,4.23-8.01,1.96-12.64-.96-1.95-2.57-3.15-4.98-4.45-8.66-4.67-17.84-5.77-25.99-6.23-8.59-.49-6.87.22-14.03-.28-15.29-1.07-14.84-3.73-24.55-3.3-4.32.19-9.32.93-15.52-.99-2.24-.69-3.96-1.53-5.16-2.19-1.87-1.03-5.88-3.2-8.19-7.12-2.63-4.47-.31-7.08-2.67-9.61-2.65-2.85-6.15-2.17-18.51-1.96-4.41.08-12.4.21-21.71-.18,0,0-4.1.47-12.1-.36-8.76-.9-6.41-.73-9.61-1.07-1.08-.11-2.79.12-3.2-.71-.45-.9.82-2.39,1.25-2.85,4.38-4.73,22.25-5.74,22.25-5.7Z"
      fill="#fbfdfd"
      stroke-width="0"
    />
    <path
      d="M249.27,116.15c0,35.9-57.95,97.69-60.65,97.68-1.9,0-60.08-61.78-60.08-97.68s27.03-65.01,60.36-65.01,60.36,29.11,60.36,65.01Z"
      fill="#fff"
      stroke="#1a2f50"
      stroke-miterlimit="10"
      stroke-width="10"
    />
    <circle cx="190.72" cy="114.75" r="32.96" fill="url(#g)" stroke-width="0" />
    <circle
      cx="149.32"
      cy="149.32"
      r="143.32"
      fill="none"
      stroke="#1a2f50"
      stroke-miterlimit="10"
      stroke-width="12"
    />
    <path
      d="M105.31,182.28c.78-.11,1.57-.23,2.35-.34"
      fill="#fbfdfd"
      stroke-width="0"
    />
    <path
      d="M486.53,121.57l-27.74,101.4h-41.38c-8.49-28.04-16.86-56.12-25.12-84.24-8.26-28.11-16.26-56.19-23.99-84.24h48.43c7.58,31.38,15.38,62.68,23.42,93.9l24.56-89.35h45.7l24.1,88.22c4.09-15.46,8.15-30.92,12.16-46.38,4.01-15.46,7.92-30.92,11.71-46.38h46.38c-7.73,28.04-15.73,56.12-23.99,84.24-8.26,28.12-16.64,56.2-25.12,84.24h-41.38l-27.74-101.4Z"
      fill="#1d1d1b"
      stroke-width="0"
    />
    <path
      d="M722.98,201.61c0,3.49.23,7.32.68,11.48.45,4.17.98,7.47,1.59,9.89h-44.79c-.76-1.82-1.36-4.17-1.82-7.05-.45-2.88-.83-5.76-1.14-8.64-3.03,6.37-7.5,11.07-13.42,14.1-5.91,3.03-12.73,4.55-20.46,4.55-10.91,0-19.75-3.3-26.49-9.89-6.75-6.59-10.12-15.42-10.12-26.49,0-12.43,5.38-22.51,16.14-30.24,10.76-7.73,26.3-12.58,46.61-14.55l5.23-.45c-.61-5-2.54-8.64-5.8-10.91-3.26-2.27-8.3-3.41-15.12-3.41-5.46,0-11.33.99-17.62,2.96-6.29,1.97-12.24,5-17.85,9.09l-2.27-35.01c6.37-3.18,13.6-5.68,21.71-7.5,8.11-1.82,16.26-2.73,24.44-2.73,19.7,0,34.71,4.47,45.02,13.41,10.31,8.95,15.46,22.13,15.46,39.56v51.84ZM669.89,193.76c2.19-1.14,3.98-2.84,5.34-5.12v-20.46c-8.04,1.22-13.64,3.15-16.83,5.8-3.18,2.65-4.77,6.1-4.77,10.35,0,3.34.95,6.03,2.84,8.07,1.89,2.05,4.28,3.07,7.16,3.07,1.97,0,4.05-.57,6.25-1.71Z"
      fill="#1d1d1b"
      stroke-width="0"
    />
    <path
      d="M842.12,161.36c-7.73,20.61-15.84,41.83-24.33,63.66-4.85,12.58-10.5,22.55-16.94,29.9-6.44,7.35-13.83,12.58-22.17,15.69-8.34,3.1-17.73,4.66-28.19,4.66-5.16,0-9.89-.34-14.21-1.02-4.32-.68-8.45-1.7-12.39-3.07l3.64-35.7c2.88,1.36,5.76,2.42,8.64,3.18,2.88.76,6.14,1.14,9.78,1.14,6.52,0,11.94-1.59,16.26-4.77s8.07-9.02,11.25-17.51c-7.88-19.55-15.57-39.18-23.08-58.89-7.5-19.7-14.82-39.33-21.94-58.89h48.88c3.33,11.52,6.67,23.12,10,34.79,3.33,11.67,6.74,23.27,10.23,34.79,3.49-11.52,6.78-23.11,9.89-34.79,3.11-11.67,6.33-23.27,9.66-34.79h47.75c-7.43,20.46-15.01,41-22.74,61.61Z"
      fill="#1d1d1b"
      stroke-width="0"
    />
    <path
      d="M875.77,99.75h47.06v14.32c3.03-5.3,7.31-9.51,12.85-12.62,5.53-3.1,12.01-4.66,19.44-4.66,9.24,0,17.36,2.58,24.33,7.73,6.97,5.15,12.47,12.54,16.48,22.17,4.01,9.63,6.03,21.18,6.03,34.67s-2.01,24.86-6.03,34.56c-4.02,9.7-9.51,17.13-16.48,22.28-6.97,5.15-15.08,7.73-24.33,7.73-7.13,0-13.38-1.44-18.76-4.32-5.38-2.88-9.66-6.82-12.85-11.82v62.52h-47.75V99.75ZM936.47,190.47c5.3,0,9.43-2.39,12.39-7.16,2.95-4.77,4.43-12.09,4.43-21.94s-1.48-17.17-4.43-21.94c-2.96-4.77-7.09-7.16-12.39-7.16-6.06,0-10.38,2.27-12.96,6.82v44.56c2.58,4.55,6.9,6.82,12.96,6.82Z"
      fill="#1d1d1b"
      stroke-width="0"
    />
    <path
      d="M1080.39,225.93c-14.55,0-26.64-2.84-36.26-8.53-9.63-5.68-16.79-13.53-21.48-23.53-4.7-10-7.05-21.52-7.05-34.56s2.39-23.3,7.16-32.63c4.77-9.32,11.97-16.63,21.6-21.94,9.62-5.3,21.63-7.96,36.04-7.96s26.6,2.65,36.15,7.96c9.55,5.31,16.71,12.62,21.48,21.94,4.78,9.32,7.16,20.2,7.16,32.63,0,13.04-2.35,24.56-7.05,34.56-4.7,10-11.82,17.85-21.37,23.53-9.55,5.68-21.68,8.53-36.38,8.53ZM1064.25,159.32c0,10.16,1.29,17.96,3.86,23.42,2.58,5.46,6.67,8.18,12.28,8.18s9.7-2.73,12.28-8.18c2.58-5.46,3.86-13.26,3.86-23.42,0-18.34-5.38-27.51-16.14-27.51s-16.14,9.17-16.14,27.51Z"
      fill="#1d1d1b"
      stroke-width="0"
    />
    <path
      d="M1166.22,83.49c-5.08-4.47-7.62-10.12-7.62-16.94s2.54-12.47,7.62-16.94c5.08-4.47,11.56-6.71,19.44-6.71s14.36,2.24,19.44,6.71c5.08,4.47,7.62,10.12,7.62,16.94s-2.54,12.47-7.62,16.94c-5.08,4.47-11.56,6.71-19.44,6.71s-14.36-2.23-19.44-6.71ZM1161.78,99.75h47.75v123.23h-47.75v-123.23Z"
      fill="#1d1d1b"
      stroke-width="0"
    />
    <path
      d="M1229.08,99.75h47.06v14.32c3.03-5.3,7.31-9.51,12.85-12.62,5.53-3.1,12.01-4.66,19.44-4.66,12.12,0,21.83,4.09,29.1,12.28,7.28,8.19,10.91,19.02,10.91,32.51v81.4h-47.74v-76.17c0-4.85-.87-8.49-2.62-10.91-1.74-2.42-4.66-3.64-8.75-3.64-5.61,0-9.78,2.2-12.51,6.59v84.12h-47.75v-123.23Z"
      fill="#1d1d1b"
      stroke-width="0"
    />
    <path
      d="M1378.23,133.4h-20.46v-33.65h20.46v-20.46l47.74-21.14v41.61h27.28v33.65h-27.28v41.61c0,10.31,4.02,15.46,12.05,15.46,3.03,0,6.1-.57,9.21-1.7,3.1-1.14,5.87-2.54,8.3-4.21l-2.27,35.7c-3.94,1.97-8.38,3.41-13.3,4.32-4.93.91-9.66,1.36-14.21,1.36-16.07,0-28-3.71-35.81-11.14-7.81-7.42-11.71-18.49-11.71-33.19v-48.2Z"
      fill="#1d1d1b"
      stroke-width="0"
    />
    <path
      d="M1547.49,138.74c9.62-28.11,19.51-56.19,29.67-84.24h56.39c10.31,28.04,20.27,56.12,29.9,84.24,9.62,28.12,19.06,56.2,28.31,84.24h-50.25c-3.03-10.76-6.06-21.37-9.09-31.83h-55.25c-3.03,10.46-6.06,21.07-9.09,31.83h-49.11c9.4-28.04,18.91-56.12,28.53-84.24ZM1613.31,126.92c-2.88-9.32-5.68-18.6-8.41-27.85-2.88,9.25-5.72,18.53-8.53,27.85-2.81,9.32-5.57,18.61-8.3,27.85h33.65c-2.73-9.24-5.53-18.53-8.41-27.85Z"
      fill="#1d1d1b"
      stroke-width="0"
    />
    <path
      d="M1710.85,54.5h49.11v168.48h-49.11V54.5Z"
      fill="#1d1d1b"
      stroke-width="0"
    />
  </g>
</svg>
