<svg
  xmlns="http://www.w3.org/2000/svg"
  fill="currentColor"
  viewBox="0 0 19.5 19.5"
>
  <path
    d="M2.86 8.07c1.04.4 2.11.7 3.19.93L3.91 6.86s-.03-.01-.05-.02v-.03L2.4 5.35c-.04.69-.05 1.37-.02 2.06.01.3.2.56.48.67ZM15.35 12.63c0-.06.01-.12.01-.18 0-.3-.03-.59-.08-.87.51.13 1.02.29 1.51.46-.05.61-.13 1.21-.24 1.81l1.27 1.27c.27-1.17.44-2.36.5-3.55.02-.33-.18-.62-.48-.74-1.69-.64-3.45-1.07-5.25-1.26.04-.08.08-.16.11-.25 1.76-.2 3.5-.62 5.15-1.25.28-.11.47-.37.48-.67.05-1.01.02-2.02-.08-3.03-.04-.41-.41-.71-.82-.67-.41.04-.71.41-.67.82.08.77.11 1.54.09 2.32-1.3.46-2.67.79-4.08.96-.07-.24-.17-.47-.3-.68.4-.13.79-.29 1.16-.49.42-.22.72-.67.72-1.19 0-.39-.06-.77-.17-1.14.48-.31.91-.68 1.3-1.1.18-.19.24-.46.17-.71-.17-.63-.45-1.22-.82-1.74-.24-.32-.69-.39-1.02-.17-.34.23-.44.7-.2 1.04.19.27.35.56.46.86-.18.17-.38.33-.59.47-.73-.92-1.86-1.52-3.14-1.52-1.22 0-2.38.56-3.14 1.52-.21-.14-.4-.3-.59-.47.12-.3.27-.59.46-.86.24-.34.16-.81-.18-1.04-.34-.24-.81-.16-1.05.18-.35.49-.61 1.04-.78 1.62l10.25 10.25ZM6.81 9.75c-1.34.23-2.66.59-3.94 1.07-.3.12-.5.41-.48.74.09 1.73.39 3.45.91 5.11.12.4.54.62.94.49.4-.12.62-.54.49-.94-.42-1.34-.69-2.74-.81-4.19.49-.17 1-.33 1.51-.46-.05.28-.08.58-.08.87 0 1.81.52 3.31 1.43 4.37.89 1.05 2.2 1.64 3.57 1.63 1.36.01 2.66-.57 3.55-1.6l-7.1-7.1Z"
  />
  <path
    d="M1.26.2C.96-.08.48-.06.2.24c-.27.29-.27.73 0 1.02l18 18c.28.3.76.32 1.06.04s.32-.76.04-1.06c-.01-.01-.02-.03-.04-.04l-18-18Z"
    stroke-width="0"
  />
</svg>
