<svg
  xmlns="http://www.w3.org/2000/svg"
  fill="currentColor"
  viewBox="0 0 16.5 21"
>
  <path
    d="M9.22.32c.83.95 1.28 2.17 1.28 3.43v1.88c0 .21.17.38.38.38h1.88c1.26 0 2.48.45 3.43 1.28-.9-3.41-3.56-6.07-6.96-6.96Z"
  />
  <path
    d="M12.75 7.5h-1.88c-1.04 0-1.88-.84-1.88-1.88V3.74c0-2.07-1.68-3.75-3.75-3.75H1.88C.84 0 0 .84 0 1.88v17.25c0 1.03.84 1.88 1.88 1.88h12.75c1.03 0 1.88-.84 1.88-1.88v-7.88c0-2.07-1.68-3.75-3.75-3.75Zm-3.33 8.05c-.12.25-.28.47-.47.67l-1.81 1.81c-.47.48-1.1.73-1.72.73s-1.22-.23-1.69-.68c-.46-.45-.72-1.05-.73-1.7 0-.64.24-1.25.68-1.71l.75-.75c.22-.24.6-.25.84-.02.12.11.19.26.19.42s-.05.31-.16.43l-.73.73c-.47.47-.47 1.24 0 1.71s1.25.46 1.71 0l1.81-1.81c.47-.47.47-1.24 0-1.71-.1-.1-.21-.18-.33-.24-.14-.07-.25-.19-.31-.34-.05-.15-.04-.32.02-.46.07-.14.19-.25.34-.31.15-.05.31-.04.46.02.58.28 1.02.77 1.24 1.37.21.61.18 1.26-.1 1.84Zm2.13-2.46-.75.75c-.22.23-.6.25-.84.02-.12-.11-.19-.26-.19-.42s.05-.31.16-.43l.73-.73c.47-.47.47-1.24 0-1.71-.46-.46-1.25-.46-1.71 0l-1.81 1.81c-.47.47-.47 1.24 0 1.71.1.1.21.18.33.24.3.16.42.52.27.82-.11.21-.32.33-.54.33-.08 0-.16-.02-.24-.05-1.21-.58-1.72-2.02-1.14-3.22.12-.25.28-.47.47-.67L8.1 9.73c.92-.95 2.46-.97 3.41-.04.95.93.97 2.46.04 3.41Z"
  />
</svg>
