<svg xmlns="http://www.w3.org/2000/svg" viewBox="0 0 18 21">
  <path
    fill-rule="evenodd"
    fill="currentColor"
    stroke-width="0"
    d="M4.5,4.5h7.13c1.86,0,3.37,1.51,3.37,3.38v9.38c1.66,0,3-1.34,3-3V4.61c0-1.51-1.12-2.81-2.66-2.94-.22-.02-.45-.03-.67-.05C14.15.62,13.12,0,12,0h-1.5c-1.12,0-2.15.62-2.66,1.62-.23.02-.45.03-.67.05-1.5.13-2.61,1.37-2.66,2.83ZM10.5,1.5c-.83,0-1.5.67-1.5,1.5h4.5c0-.83-.67-1.5-1.5-1.5h-1.5Z"
  />
  <path
    fill-rule="evenodd"
    fill="currentColor"
    stroke-width="0"
    d="M11.62,6H1.88c-1.03,0-1.88.84-1.88,1.88v11.25c0,1.04.84,1.88,1.88,1.88h9.75c1.04,0,1.88-.84,1.88-1.88V7.88c0-1.04-.84-1.88-1.88-1.88ZM9.53,15.22s.03.02.04.04c.28.3.27.78-.04,1.06-.3.28-.78.27-1.06-.04l-1.72-1.72-1.72,1.72s-.02.03-.04.04c-.3.28-.78.27-1.06-.04-.28-.3-.27-.78.04-1.06l1.72-1.72-1.72-1.72s-.03-.02-.04-.04c-.28-.3-.27-.78.04-1.06.3-.28.78-.27,1.06.04l1.72,1.72,1.72-1.72s.02-.03.04-.04c.3-.28.78-.27,1.06.04.28.3.27.78-.04,1.06l-1.72,1.72,1.72,1.72Z"
  />
</svg>
