<svg xmlns="http://www.w3.org/2000/svg" viewBox="0 0 18 21" fill="currentColor">
  <path
    class="cls-1"
    d="M12,3.75c0-1.26-.45-2.48-1.28-3.43,3.41.9,6.07,3.56,6.96,6.96-.95-.83-2.17-1.28-3.43-1.28h-1.88c-.21,0-.38-.17-.38-.38v-1.88ZM1.88,4.5h1.12v10.12c0,1.86,1.51,3.38,3.38,3.38h7.12v1.12c0,1.03-.84,1.88-1.88,1.88H1.88c-1.04,0-1.88-.84-1.88-1.88h0V6.37c0-1.04.84-1.88,1.88-1.88Z"
  />
  <path
    class="cls-1"
    d="M14.25,7.5h-1.88c-1.03,0-1.88-.84-1.88-1.88v-1.88c0-2.07-1.68-3.75-3.75-3.75h-.38c-1.03,0-1.88.84-1.88,1.88v12.75c0,1.04.84,1.88,1.88,1.88h9.75c1.03,0,1.88-.84,1.88-1.88v-3.38c0-2.07-1.68-3.75-3.75-3.75ZM12.21,9.98l-3.49,3.49h2.43s.04,0,.05,0c.41.01.74.36.72.78-.01.41-.36.74-.78.72h-4.24c-.41,0-.75-.34-.75-.75v-4.24c.01-.39.33-.71.72-.72.41-.01.76.31.78.72v2.43l3.49-3.49c.29-.29.77-.29,1.06,0s.29.77,0,1.06Z"
  />
</svg>
