<svg
  xmlns="http://www.w3.org/2000/svg"
  fill="currentColor"
  viewBox="0 0 21 24.64"
>
  <path
    d="M3 9.27c0-2.28 1.85-4.12 4.12-4.12S11.24 7 11.24 9.27s-1.85 4.12-4.12 4.12S3 11.54 3 9.27Zm9.75 2.25c0-1.86 1.51-3.38 3.38-3.38s3.38 1.51 3.38 3.38S18 14.9 16.13 14.9s-3.38-1.51-3.38-3.38ZM0 22.02c0-3.94 3.19-7.13 7.13-7.13s7.12 3.19 7.12 7.12v.12c0 .26-.14.5-.36.63-2.04 1.23-4.38 1.88-6.76 1.87-2.47 0-4.79-.68-6.76-1.87-.22-.13-.36-.37-.36-.63-.01.01-.01-.11-.01-.11Zm15.75 0v.14c0 .33-.09.66-.23.96 1.75.11 3.49-.24 5.06-1.01.25-.12.41-.37.42-.64.11-2.69-1.98-4.96-4.67-5.08-.79-.03-1.58.13-2.29.46 1.11 1.49 1.71 3.3 1.71 5.16Z"
  />
  <path
    fill-rule="evenodd"
    stroke="currentColor"
    stroke-miterlimit="10"
    stroke-width=".5"
    d="M8.93 2.6v1.04c0 .14-.16.26-.35.26s-.35-.12-.35-.26V2.6c0-1.3 1.4-2.35 3.12-2.35s3.12 1.05 3.12 2.35v3.55l2.18-1.64s.01 0 .02-.01c.14-.1.36-.09.49.01s.12.27-.02.37l-2.77 2.09c-.14.1-.35.1-.49 0l-2.77-2.09s-.01 0-.02-.01c-.13-.11-.12-.27.02-.37s.36-.09.49.01l2.18 1.64V2.6c0-1.01-1.09-1.83-2.43-1.83s-2.43.82-2.43 1.83Z"
  />
</svg>
