<svg xmlns:inkscape="http://www.inkscape.org/namespaces/inkscape" xmlns:sodipodi="http://sodipodi.sourceforge.net/DTD/sodipodi-0.dtd" xmlns="http://www.w3.org/2000/svg" xmlns:svg="http://www.w3.org/2000/svg" version="1.1" id="svg2" width="300" height="300" viewBox="60 50 550 550" sodipodi:docname="5194447.ai" style="&#10;    /* background: black; */&#10;">
  <defs id="defs6">
    <clipPath clipPathUnits="userSpaceOnUse" id="clipPath30">
      <path d="M 0,500 H 500 V 0 H 0 Z" id="path28"/>
    </clipPath>
    <clipPath clipPathUnits="userSpaceOnUse" id="clipPath90">
      <path d="M 0,500 H 500 V 0 H 0 Z" id="path88"/>
    </clipPath>
    <clipPath clipPathUnits="userSpaceOnUse" id="clipPath102">
      <path d="M 77.6899,440.974 H 417.235 V 122.862 H 77.6899 Z" id="path100"/>
    </clipPath>
    <clipPath clipPathUnits="userSpaceOnUse" id="clipPath118">
      <path d="M 0,500 H 500 V 0 H 0 Z" id="path116"/>
    </clipPath>
    <clipPath clipPathUnits="userSpaceOnUse" id="clipPath130">
      <path d="M 0,500 H 500 V 0 H 0 Z" id="path128"/>
    </clipPath>
    <clipPath clipPathUnits="userSpaceOnUse" id="clipPath142">
      <path d="M 356.744,379.48 H 450.16 V 100.24 h -93.416 z" id="path140"/>
    </clipPath>
    <clipPath clipPathUnits="userSpaceOnUse" id="clipPath158">
      <path d="m 399.09,379.48 h 27.39 v -20.63 h -27.39 z" id="path156"/>
    </clipPath>
    <clipPath clipPathUnits="userSpaceOnUse" id="clipPath174">
      <path d="M 356.746,347.49 H 450.16 V 100.24 h -93.414 z" id="path172"/>
    </clipPath>
    <clipPath clipPathUnits="userSpaceOnUse" id="clipPath190">
      <path d="M 0,500 H 500 V 0 H 0 Z" id="path188"/>
    </clipPath>
    <clipPath clipPathUnits="userSpaceOnUse" id="clipPath202">
      <path d="m 293.14,271.96 h 10.57 v -3.27 h -10.57 z" id="path200"/>
    </clipPath>
    <clipPath clipPathUnits="userSpaceOnUse" id="clipPath222">
      <path d="m 252.46,294.41 h 8.02 v -10.97 h -8.02 z" id="path220"/>
    </clipPath>
    <clipPath clipPathUnits="userSpaceOnUse" id="clipPath250">
      <path d="m 377.758,295.525 h 3.198 v -3.219 h -3.198 z" id="path248"/>
    </clipPath>
    <clipPath clipPathUnits="userSpaceOnUse" id="clipPath266">
      <path d="m 380.1,290.038 h 2.042 v -2.783 H 380.1 Z" id="path264"/>
    </clipPath>
    <clipPath clipPathUnits="userSpaceOnUse" id="clipPath294">
      <path d="m 223.566,197.238 h 7.253 v -11.726 h -7.253 z" id="path292"/>
    </clipPath>
    <clipPath clipPathUnits="userSpaceOnUse" id="clipPath314">
      <path d="m 209.7,195.184 h 6.102 v -9.9 H 209.7 Z" id="path312"/>
    </clipPath>
    <clipPath clipPathUnits="userSpaceOnUse" id="clipPath334">
      <path d="m 215.165,191.739 h 6.809 v -12.437 h -6.809 z" id="path332"/>
    </clipPath>
    <clipPath clipPathUnits="userSpaceOnUse" id="clipPath366">
      <path d="m 209.901,254.449 h 22.935 v -21.136 h -22.935 z" id="path364"/>
    </clipPath>
    <clipPath clipPathUnits="userSpaceOnUse" id="clipPath398">
      <path d="m 282.434,296.286 h 5.304 v -12.847 h -5.304 z" id="path396"/>
    </clipPath>
    <clipPath clipPathUnits="userSpaceOnUse" id="clipPath466">
      <path d="m 283.795,307.301 h 10.727 v -22.665 h -10.727 z" id="path464"/>
    </clipPath>
    <clipPath clipPathUnits="userSpaceOnUse" id="clipPath486">
      <path d="M 272.636,323.787 H 305 V 298.18 h -32.364 z" id="path484"/>
    </clipPath>
    <clipPath clipPathUnits="userSpaceOnUse" id="clipPath506">
      <path d="m 276.804,314.157 h 27.887 v -16.449 h -27.887 z" id="path504"/>
    </clipPath>
    <clipPath clipPathUnits="userSpaceOnUse" id="clipPath522">
      <path d="m 287.738,323.531 h 9.942 v -5.443 h -9.942 z" id="path520"/>
    </clipPath>
    <clipPath clipPathUnits="userSpaceOnUse" id="clipPath538">
      <path d="m 277.967,321.731 h 15.339 V 317.3 h -15.339 z" id="path536"/>
    </clipPath>
    <clipPath clipPathUnits="userSpaceOnUse" id="clipPath554">
      <path d="m 298.731,320.81 h 4.126 v -4.471 h -4.126 z" id="path552"/>
    </clipPath>
    <clipPath clipPathUnits="userSpaceOnUse" id="clipPath574">
      <path d="m 279.746,295.649 h 6.331 v -5.451 h -6.331 z" id="path572"/>
    </clipPath>
    <clipPath clipPathUnits="userSpaceOnUse" id="clipPath602">
      <path d="m 185.198,247.99 h 85.028 v -67.572 h -85.028 z" id="path600"/>
    </clipPath>
    <clipPath clipPathUnits="userSpaceOnUse" id="clipPath654">
      <path d="m 237.207,255.535 h 7.255 v -11.669 h -7.255 z" id="path652"/>
    </clipPath>
    <clipPath clipPathUnits="userSpaceOnUse" id="clipPath674">
      <path d="m 238.376,251.454 h 11.197 v -8.587 h -11.197 z" id="path672"/>
    </clipPath>
    <clipPath clipPathUnits="userSpaceOnUse" id="clipPath698">
      <path d="m 216.769,381.198 h 26.952 V 253.449 h -26.952 z" id="path696"/>
    </clipPath>
    <clipPath clipPathUnits="userSpaceOnUse" id="clipPath718">
      <path d="M 246.114,288.255 H 374.407 V 200.966 H 246.114 Z" id="path716"/>
    </clipPath>
    <clipPath clipPathUnits="userSpaceOnUse" id="clipPath738">
      <path d="M 51.4414,387.9 H 241.927 V 81.27 H 51.4414 Z" id="path736"/>
    </clipPath>
    <clipPath clipPathUnits="userSpaceOnUse" id="clipPath754">
      <path d="M 57.02,378.13 H 183.26 V 81.27 H 57.02 Z" id="path752"/>
    </clipPath>
    <clipPath clipPathUnits="userSpaceOnUse" id="clipPath770">
      <path d="m 170.16,357.66 h 59.01 v -38.364 h -59.01 z" id="path768"/>
    </clipPath>
    <clipPath clipPathUnits="userSpaceOnUse" id="clipPath794">
      <path d="M 71.0549,246.874 H 240.96 V 114.441 H 71.0549 Z" id="path792"/>
    </clipPath>
    <clipPath clipPathUnits="userSpaceOnUse" id="clipPath818">
      <path d="m 234.91,229.6 h 0.69 v -1.34 h -0.69 z" id="path816"/>
    </clipPath>
    <clipPath clipPathUnits="userSpaceOnUse" id="clipPath834">
      <path d="m 233.016,234.474 h 10.502 v -10.306 h -10.502 z" id="path832"/>
    </clipPath>
    <clipPath clipPathUnits="userSpaceOnUse" id="clipPath854">
      <path d="M 0,500 H 500 V 0 H 0 Z" id="path852"/>
    </clipPath>
    <clipPath clipPathUnits="userSpaceOnUse" id="clipPath866">
      <path d="M 266.75,168.6 H 423.1 V 78.86 H 266.75 Z" id="path864"/>
    </clipPath>
    <clipPath clipPathUnits="userSpaceOnUse" id="clipPath882">
      <path d="M 266.75,168.6 H 371.3 V 78.86 H 266.75 Z" id="path880"/>
    </clipPath>
    <clipPath clipPathUnits="userSpaceOnUse" id="clipPath898">
      <path d="m 383.38,127.77 h 13.21 V 81.46 h -13.21 z" id="path896"/>
    </clipPath>
  </defs>
  <sodipodi:namedview id="namedview4" pagecolor="#ffffff" bordercolor="#000000" borderopacity="0.25" inkscape:showpageshadow="2" inkscape:pageopacity="0.0" inkscape:pagecheckerboard="0" inkscape:deskcolor="#d1d1d1"/>
  <g id="g8" inkscape:groupmode="layer" inkscape:label="5194447" transform="matrix(1.3333333,0,0,-1.3333333,0,666.66667)">
    
    
    <path d="m 322.527,98.542 h 8.693 v 0.25 h -8.693 z" style="fill:#ececec;fill-opacity:1;fill-rule:nonzero;stroke:none" id="path14"/>
    
    
    
    
    <g id="g24">
      <g id="g26" clip-path="url(#clipPath30)">
        
        
        <g id="g40" transform="translate(423.1021,121.7832)">
          <path d="m 0,0 -0.45,66.187 -9.831,8.304 -4.553,21.891 -5.89,6.876 -3.17,15.323 -5.374,-6.982 -3.038,-41.907 -3.038,4.799 -2.423,16.296 -4.855,-5.221 -6.073,-1.518 -3.544,-34.621 -90.161,-10.764 -18.793,16.078 -7.64,31.332 -7.919,8.174 -2.411,15.103 -7.569,-2.623 v -15.94 l -6.439,-3.702 -2.752,-32.344 -8.078,-11.185 -2.3,19.989 c 0,0 -6.189,4.951 -7.554,6.147 -1.365,1.197 -9.175,22.931 -7.997,24.555 1.178,1.625 -1.689,15.728 -1.689,15.728 l -7.799,-4.672 V 81.939 l -8.144,-2.062 -1.226,-10.185 -20.762,-3.356 -3.339,15.603 h -9.258 l -2.908,-8.89 -8.426,0.056 -13.332,-9.56 -10.963,21.516 -11.148,-5.184 -8.026,18.64 -8.44,-10.926 -3.126,-35.431 -4.325,-0.506 -2.008,7.636 -8.115,-7.636 V 0 Z" style="fill:#f5f5f5;fill-opacity:1;fill-rule:nonzero;stroke:none" id="path42"/>
        </g>
        <g id="g44" transform="translate(273.1768,298.5693)">
          <path d="m 0,0 h -49.785 l 0.01,0.011 c -4.285,0.12 -7.723,3.622 -7.723,7.936 0,4.389 3.558,7.947 7.947,7.947 0.793,0 1.558,-0.12 2.282,-0.337 -0.116,0.797 -0.179,1.611 -0.179,2.44 0,9.295 7.535,16.829 16.829,16.829 1.059,0 2.095,-0.103 3.1,-0.29 2.586,4.233 7.236,7.068 12.56,7.068 8.058,0 14.594,-6.474 14.714,-14.503 0.082,0.001 0.162,0.012 0.245,0.012 7.487,0 13.556,-6.07 13.556,-13.557 C 13.556,6.069 7.487,0 0,0" style="fill:#f5f5f5;fill-opacity:1;fill-rule:nonzero;stroke:none" id="path46"/>
        </g>
        <g id="g48" transform="translate(269.3193,402.1538)">
          <path d="m 0,0 h -18.727 l 0.004,0.004 c -1.611,0.045 -2.905,1.363 -2.905,2.985 0,1.651 1.338,2.99 2.989,2.99 0.299,0 0.587,-0.046 0.859,-0.127 -0.044,0.299 -0.068,0.606 -0.068,0.918 0,3.496 2.835,6.33 6.331,6.33 0.398,0 0.788,-0.039 1.166,-0.109 0.973,1.592 2.722,2.658 4.724,2.658 3.031,0 5.49,-2.435 5.535,-5.456 0.03,0.001 0.061,0.005 0.092,0.005 2.816,0 5.099,-2.282 5.099,-5.099 C 5.099,2.283 2.816,0 0,0" style="fill:#f5f5f5;fill-opacity:1;fill-rule:nonzero;stroke:none" id="path50"/>
        </g>
        <g id="g52" transform="translate(135.3647,397.1538)">
          <path d="m 0,0 h -18.727 l 0.004,0.004 c -1.611,0.045 -2.904,1.363 -2.904,2.985 0,1.651 1.337,2.989 2.988,2.989 0.299,0 0.587,-0.045 0.859,-0.126 -0.044,0.299 -0.067,0.606 -0.067,0.918 0,3.496 2.834,6.33 6.33,6.33 0.398,0 0.788,-0.039 1.166,-0.109 0.973,1.592 2.722,2.658 4.724,2.658 3.031,0 5.49,-2.435 5.535,-5.456 0.03,0.001 0.061,0.005 0.092,0.005 2.816,0 5.099,-2.283 5.099,-5.099 C 5.099,2.283 2.816,0 0,0" style="fill:#f5f5f5;fill-opacity:1;fill-rule:nonzero;stroke:none" id="path54"/>
        </g>
        <g id="g56" transform="translate(383.7476,389.0444)">
          <path d="m 0,0 h -18.727 l 0.005,0.004 c -1.612,0.045 -2.905,1.363 -2.905,2.985 0,1.651 1.338,2.99 2.989,2.99 0.298,0 0.586,-0.045 0.858,-0.127 -0.044,0.3 -0.067,0.606 -0.067,0.918 0,3.496 2.834,6.33 6.33,6.33 0.399,0 0.788,-0.038 1.166,-0.109 0.973,1.592 2.722,2.658 4.725,2.658 3.03,0 5.489,-2.435 5.534,-5.455 0.031,0 0.061,0.005 0.092,0.005 2.816,0 5.099,-2.283 5.099,-5.099 C 5.099,2.283 2.816,0 0,0" style="fill:#f5f5f5;fill-opacity:1;fill-rule:nonzero;stroke:none" id="path58"/>
        </g>
        <g id="g60" transform="translate(141.7676,311.7954)">
          <path d="m 0,0 h -18.727 l 0.004,0.004 c -1.611,0.045 -2.904,1.363 -2.904,2.985 0,1.651 1.338,2.99 2.988,2.99 0.299,0 0.587,-0.046 0.859,-0.127 -0.044,0.299 -0.067,0.606 -0.067,0.918 0,3.496 2.834,6.33 6.33,6.33 0.398,0 0.788,-0.039 1.166,-0.109 0.973,1.592 2.722,2.658 4.725,2.658 3.03,0 5.489,-2.435 5.534,-5.455 0.031,0 0.061,0.004 0.092,0.004 2.816,0 5.099,-2.282 5.099,-5.099 C 5.099,2.283 2.816,0 0,0" style="fill:#f5f5f5;fill-opacity:1;fill-rule:nonzero;stroke:none" id="path62"/>
        </g>
        <g id="g64" transform="translate(408.2246,302.0557)">
          <path d="m 0,0 h -27.084 l 0.005,0.006 c -2.331,0.065 -4.201,1.971 -4.201,4.317 0,2.388 1.935,4.323 4.323,4.323 0.432,0 0.848,-0.064 1.241,-0.183 -0.063,0.434 -0.096,0.877 -0.096,1.328 0,5.056 4.098,9.155 9.155,9.155 0.576,0 1.139,-0.055 1.686,-0.157 1.407,2.302 3.937,3.845 6.833,3.845 4.384,0 7.94,-3.523 8.005,-7.891 0.045,10e-4 0.088,0.007 0.133,0.007 4.073,0 7.375,-3.302 7.375,-7.375 C 7.375,3.302 4.073,0 0,0" style="fill:#f5f5f5;fill-opacity:1;fill-rule:nonzero;stroke:none" id="path66"/>
        </g>
        <g id="g68" transform="translate(330.978,352.4141)">
          <path d="m 0,0 h -27.084 l 0.005,0.006 c -2.331,0.065 -4.202,1.971 -4.202,4.318 0,2.387 1.936,4.323 4.323,4.323 0.432,0 0.849,-0.065 1.242,-0.183 -0.063,0.433 -0.097,0.876 -0.097,1.328 0,5.056 4.099,9.155 9.155,9.155 0.576,0 1.139,-0.056 1.687,-0.158 1.407,2.303 3.936,3.845 6.833,3.845 4.384,0 7.939,-3.522 8.004,-7.89 0.045,10e-4 0.089,0.006 0.134,0.006 4.073,0 7.375,-3.301 7.375,-7.375 C 7.375,3.302 4.073,0 0,0" style="fill:#f5f5f5;fill-opacity:1;fill-rule:nonzero;stroke:none" id="path70"/>
        </g>
        <g id="g72" transform="translate(75.4072,139.7783)">
          <path d="m 0,0 15.86,3.165 3.573,43.346 10.819,7.494 3.77,37.174 9.72,10.943 4.521,-8.526 7.38,-13.475 2.462,-13.213 4.187,-11.798 9.04,-14.135 8.114,7.246 c 0,0 4.423,7.177 6.539,8.112 2.117,0.936 10.772,1.729 10.772,1.729 l 12.034,-11.551 v -8.984 l 12.31,-6.564 c 0,0 7.549,-7.586 7.574,-7.61 3.314,-3.331 6.425,-9.259 12.001,-9.383 7.61,-0.169 17.365,13.546 21.039,19.213 2.875,4.431 5.216,9.237 8.606,13.288 7.948,9.499 21.61,15 24.714,26.991 3.203,-2.96 6.406,-5.92 9.609,-8.879 0.832,-0.77 1.794,-1.588 2.925,-1.536 0.987,0.045 1.804,0.743 2.535,1.405 4.838,4.376 9.816,8.946 12.391,14.94 0.807,1.878 1.364,3.872 2.391,5.639 1.48,2.548 3.827,4.45 5.926,6.52 8.062,7.945 12.693,18.641 17.134,29.053 9.185,-10.292 24.752,-0.501 28.884,-17.109 1.625,-6.531 3.524,-12.945 5.869,-19.259 8.531,-22.971 21.459,-44.263 37.113,-63.066 6.344,-7.62 13.159,-14.846 20.363,-21.657 3.937,-3.722 7.99,-7.32 12.146,-10.794 2.542,-2.124 10.344,-10.631 13.557,-10.631 H -17.313 Z" style="fill:#ececec;fill-opacity: 0.8;fill-rule:nonzero;stroke:none" id="path74"/>
        </g>
        <g id="g76" transform="translate(87.7222,117.6016)">
          <path d="m 0,0 16.414,22.529 c 0,0 7.593,0.077 9.207,1.682 1.613,1.605 5.964,5.492 11.108,10.867 5.142,5.375 13.45,15.661 13.45,15.661 L 60.86,47.182 c 0,0 6.33,-14.641 7.912,-18.202 1.582,-3.559 6.766,-11.471 6.766,-11.471 l 15.277,-4.748 c 0,0 1.449,8.307 5.923,13.846 4.474,5.539 11.219,15.429 11.219,15.429 l 6.295,19.152 8.271,6.912 8.131,-10.736 c 0,0 5.281,-5.606 6.117,-8.687 0.836,-3.08 2.96,-11.853 4.272,-13.599 1.311,-1.745 7.705,-12.104 7.705,-12.104 l 4.01,-5.862 16.324,-0.395 c 0,0 1.562,2.228 4.23,6.257 2.669,4.029 4.377,8.856 5.699,10.201 1.322,1.345 5.991,15.502 5.991,15.502 l 6.007,4.832 23.796,-37.188 c 0,0 23.286,-6.946 28.033,-5.451 4.747,1.495 7.101,0.309 11.462,3.474 4.363,3.165 17.553,37.977 18.078,39.956 0.526,1.977 2.109,1.663 7.647,4.985 5.538,3.322 8.346,6.238 8.525,4.187 0.179,-2.051 6.663,-15.123 7.179,-18.873 0.516,-3.75 2.177,-9.491 2.731,-13.543 0.554,-4.053 2.532,-8.073 4.115,-10.217 C 304.157,18.695 315.38,0 315.38,0 Z" style="fill:#e1e1e1;fill-opacity: 0.8;fill-rule:nonzero;stroke:none" id="path78"/>
        </g>
        <g id="g80" transform="translate(205.8071,276.2495)">
          <path d="m 0,0 c 0,-9.844 -7.979,-17.824 -17.823,-17.824 -9.844,0 -17.824,7.98 -17.824,17.824 0,9.843 7.98,17.823 17.824,17.823 C -7.979,17.823 0,9.843 0,0" style="fill:#fafafa;fill-opacity:1;fill-rule:nonzero;stroke:none" id="path82"/>
        </g>
      </g>
    </g>
    <g id="g84">
      <g id="g86" clip-path="url(#clipPath90)">
        
        <g id="g96">
          <g id="g98"/>
          <g id="g110">
            <g clip-path="url(#clipPath102)" opacity="0.899994" id="g108">
              <g transform="translate(85.5557,398.375)" id="g106">
                
              </g>
            </g>
          </g>
        </g>
      </g>
    </g>
    <g id="g112">
      <g id="g114" clip-path="url(#clipPath118)">
        <g id="g120" transform="translate(443.8892,83.7617)">
          <path d="m 0,0 c 0,-6.254 -86.807,-11.323 -193.889,-11.323 -107.082,0 -193.889,5.069 -193.889,11.323 0,6.254 86.807,11.323 193.889,11.323 C -86.807,11.323 0,6.254 0,0" style="fill:#f5f5f5;fill-opacity: 0.8;fill-rule:nonzero;stroke:none" id="path122"/>
        </g>
      </g>
    </g>
    <g id="g124">
      <g id="g126" clip-path="url(#clipPath130)">
        <g id="g132" transform="translate(380.6265,367.8252)">
          <path d="m 0,0 c 0,0 -23.465,-12.616 -23.865,-16.144 -0.399,-3.527 6.986,-14.009 5.404,-19.845 -1.583,-5.836 -5.563,-17.647 -5.419,-19.39 0.144,-1.743 2.781,-8.441 2.781,-8.441 0,0 5.465,-1.819 5.634,-1.78 0.168,0.038 29.179,-1.869 29.179,-1.869 l 15.072,9.069 c 0,0 3.917,-3.15 3.917,-5.42 0,-2.269 -9.495,-0.338 -12.659,-3.15 -3.165,-2.811 -9.495,-4.722 -9.495,-4.722 0,0 -3.692,-29.294 -0.527,-32.945 3.165,-3.65 12.132,-16.573 12.132,-16.573 l -6.195,-47.895 c 0,0 -1.19,-17.04 3.03,-22.155 4.219,-5.115 4.694,-6.697 6.567,-7.752 1.872,-1.055 18.752,-51.238 18.752,-51.238 v -17.333 c 0,0 12.131,55.384 12.131,58.549 0,3.165 -7.384,20.591 -7.384,20.591 l 7.384,30.64 6.824,37.471 c 0,0 7.77,63.765 6.012,66.389 -1.758,2.623 -16.561,14.565 -16.561,14.565 0,0 -2.077,31.841 -7.352,35.005 -5.274,3.163 -22.537,16.024 -22.537,16.024 0,0 -2.254,-13.079 -4.364,-11.651 C 16.352,1.428 0,0 0,0" style="fill:#007cff;fill-opacity:1;fill-rule:nonzero;stroke:none" id="path134"/>
        </g>
        <g id="g136">
          <g id="g138"/>
          <g id="g150">
            <g clip-path="url(#clipPath142)" opacity="0.600006" id="g148">
              <g transform="translate(450.1602,311.27)" id="g146">
                <path d="m 0,0 c -0.01,-12.44 -6.27,-63.78 -6.27,-63.78 l -6.82,-37.47 -7.39,-30.64 0.01,-0.01 c 0.22,-0.53 7.38,-17.46 7.38,-20.58 0,-3.16 -12.14,-58.55 -12.14,-58.55 v 17.34 c 0,0 -9.21,27.39 -14.78,42.12 -1.97,5.21 -3.48,8.83 -3.97,9.11 -1.87,1.06 -2.34,2.64 -6.56,7.76 -4.22,5.11 -3.03,22.15 -3.03,22.15 l 6.19,47.9 c 0,0 -8.97,12.92 -12.13,16.57 -3.17,3.65 0.53,32.94 0.53,32.94 0,0 6.33,1.91 9.49,4.73 3.17,2.81 12.66,0.88 12.66,3.15 0,2.26 -3.92,5.41 -3.92,5.41 l -15.07,-9.06 c 0,0 -29.01,1.9 -29.18,1.87 -0.17,-0.04 -5.63,1.78 -5.63,1.78 0,0 -2.64,6.69 -2.78,8.44 -0.15,1.74 3.83,13.55 5.41,19.39 1.08,3.95 -1.97,10.04 -3.92,14.65 -0.93,2.19 -1.61,4.05 -1.48,5.19 0.4,3.53 23.87,16.15 23.87,16.15 0,0 16.35,1.42 18.46,0 2.11,-1.43 4.36,11.65 4.36,11.65 0,0 17.26,-12.86 22.54,-16.03 0.17,-0.1 0.33,-0.23 0.49,-0.39 4.1,-3.98 6.14,-25.47 6.69,-32.43 0.12,-1.37 0.17,-2.18 0.17,-2.18 0,0 14.8,-11.94 16.56,-14.57 C -0.08,2.34 0,1.43 0,0" style="fill:#ffffff;fill-opacity:1;fill-rule:nonzero;stroke:none" id="path144"/>
              </g>
            </g>
          </g>
        </g>
        <g id="g152">
          <g id="g154"/>
          <g id="g166">
            <g clip-path="url(#clipPath158)" opacity="0.100006" id="g164">
              <g transform="translate(411.0903,358.8501)" id="g162">
                <path d="m 0,0 -12,8.98 c 2.11,-1.43 4.36,11.65 4.36,11.65 0,0 17.26,-12.86 22.54,-16.03 0.17,-0.1 0.33,-0.23 0.49,-0.39 L 15.03,2.5 Z" style="fill:#000000;fill-opacity:1;fill-rule:nonzero;stroke:none" id="path160"/>
              </g>
            </g>
          </g>
        </g>
        <g id="g168">
          <g id="g170"/>
          <g id="g182">
            <g clip-path="url(#clipPath174)" opacity="0.100006" id="g180">
              <g transform="translate(403.4502,217.54)" id="g178">
                <path d="m 0,0 c -0.67,-12.07 -4.23,-27.92 -2.65,-32.26 1.58,-4.33 3.67,-8.71 3.67,-8.71 0,0 7.8,19.02 9.39,18.23 1.58,-0.8 6.72,-8.031 6.72,-8.031 l 7.52,34.531 -2.77,9.49 8.7,13.04 2.77,-17.76 -9.49,-42.12 2.369,-4.57 0.011,-0.01 c 0.22,-0.53 7.38,-17.46 7.38,-20.58 0,-3.16 -12.141,-58.55 -12.141,-58.55 v 15.2 l 3.961,31.88 -8.31,25.16 -6.72,-3.4 -3.71,-9.38 c -1.971,5.21 -3.48,8.83 -3.971,9.11 -1.869,1.06 -2.339,2.64 -6.559,7.76 -4.22,5.11 -3.03,22.15 -3.03,22.15 l 6.19,47.9 c 0,0 -8.97,12.92 -12.13,16.57 -3.17,3.65 0.529,32.94 0.529,32.94 0,0 6.331,1.91 9.491,4.73 3.17,2.81 12.66,0.88 12.66,3.15 0,2.26 -3.92,5.41 -3.92,5.41 L -9.11,82.82 c 0,0 -29.01,1.9 -29.18,1.87 -0.17,-0.04 -5.63,1.78 -5.63,1.78 0,0 -2.64,6.69 -2.78,8.44 -0.15,1.74 3.83,13.55 5.41,19.39 1.08,3.95 -1.97,10.04 -3.92,14.65 l 10.51,-8.01 14.63,3.17 4.76,5.84 11.48,-9.01 -10.29,-18.96 -13.85,-7.07 v -5.1 l 18.199,-2.42 20.181,10.32 13.05,-0.01 6.26,15.39 c 0.12,-1.37 0.17,-2.18 0.17,-2.18 0,0 14.8,-11.94 16.56,-14.57 0.18,-0.27 0.26,-1.18 0.26,-2.61 L 33.75,89.81 15.15,88.42 15.95,80.17 1.02,75.76 c 0,0 -10,0.48 -10,-0.75 0,-1.23 -1.18,-26.47 -1.18,-26.47 L 0,36.91 14.76,48.49 c 0,0 -1.19,12.96 0.39,12.4 1.59,-0.56 22.16,-4.09 22.16,-4.09 L 20.3,46.21 11.59,41.07 C 11.59,41.07 0.67,12.06 0,0" style="fill:#000000;fill-opacity:1;fill-rule:nonzero;stroke:none" id="path176"/>
              </g>
            </g>
          </g>
        </g>
      </g>
    </g>
    <g id="g184">
      <g id="g186" clip-path="url(#clipPath190)">
        <g id="g192" transform="translate(365.1602,283.4399)">
          <path d="m 0,0 c 0,0 -25.87,-10.91 -33.39,-12.49 -4.65,-0.98 -18.31,-1.61 -28.06,-1.95 -6.03,-0.21 -10.57,-0.31 -10.57,-0.31 l 0.76,3.27 1.61,6.9 c 0,0 24.59,-1.39 33.69,-0.79 9.1,0.59 34.22,10.1 34.22,10.1 z" style="fill:#fe8a7b;fill-opacity:1;fill-rule:nonzero;stroke:none" id="path194"/>
        </g>
        <g id="g196">
          <g id="g198"/>
          <g id="g210">
            <g clip-path="url(#clipPath202)" opacity="0.199997" id="g208">
              <g transform="translate(303.71,269)" id="g206">
                <path d="m 0,0 c -6.03,-0.21 -10.57,-0.31 -10.57,-0.31 l 0.76,3.27 C -7.09,2.47 -3.21,1.56 0,0" style="fill:#000000;fill-opacity:1;fill-rule:nonzero;stroke:none" id="path204"/>
              </g>
            </g>
          </g>
        </g>
        <g id="g212" transform="translate(263.8999,295.6499)">
          <path d="m 0,0 -3.42,-7.56 -2.1,-4.65 c 0,0 -2.72,4.85 -5.92,10.97 -4.21,8.08 -9.26,18.37 -9.99,22.68 -1.28,7.58 -7.63,37.53 -7.63,37.53 l 4.95,1.18 c 0,0 7.12,-30.06 9.58,-34.81 C -12.07,20.59 0,0 0,0" style="fill:#fe8a7b;fill-opacity:1;fill-rule:nonzero;stroke:none" id="path214"/>
        </g>
        <g id="g216">
          <g id="g218"/>
          <g id="g230">
            <g clip-path="url(#clipPath222)" opacity="0.199997" id="g228">
              <g transform="translate(260.48,288.0898)" id="g226">
                <path d="m 0,0 -2.1,-4.65 c 0,0 -2.72,4.85 -5.92,10.97 C -5.45,4.98 -2.26,2.91 0,0" style="fill:#000000;fill-opacity:1;fill-rule:nonzero;stroke:none" id="path224"/>
              </g>
            </g>
          </g>
        </g>
        <g id="g232" transform="translate(363.0879,285.2759)">
          <path d="m 0,0 c 0,0 -1.187,2.248 -1.055,2.893 0.132,0.644 4.088,4.336 7.385,5.127 3.296,0.792 4.087,0 4.087,0 l 1.979,-9.23 c 0,0 -10.072,-2.542 -10.945,-1.897 C 0.577,-2.463 0,0 0,0" style="fill:#fe8a7b;fill-opacity:1;fill-rule:nonzero;stroke:none" id="path234"/>
        </g>
        <g id="g236" transform="translate(380.9561,293.6479)">
          <path d="m 0,0 c 0,0 -0.824,1.561 -1.879,1.825 -1.055,0.263 -1.319,-0.561 -1.319,-0.561 0,0 1.451,-0.132 1.088,-1.945 C -2.473,-2.494 0,0 0,0" style="fill:#1a2e35;fill-opacity:1;fill-rule:nonzero;stroke:none" id="path238"/>
        </g>
        <g id="g240" transform="translate(382.1416,289.7773)">
          <path d="m 0,0 c 0,0 0.03,-2.258 -1.958,-2.522 0,0 0.793,1.215 -0.083,2.783 z" style="fill:#1a2e35;fill-opacity:1;fill-rule:nonzero;stroke:none" id="path242"/>
        </g>
        <g id="g244">
          <g id="g246"/>
          <g id="g258">
            <g clip-path="url(#clipPath250)" opacity="0.399994" id="g256">
              <g transform="translate(380.9561,293.6479)" id="g254">
                <path d="m 0,0 c 0,0 -0.824,1.561 -1.879,1.825 -1.055,0.263 -1.319,-0.561 -1.319,-0.561 0,0 1.451,-0.132 1.088,-1.945 C -2.473,-2.494 0,0 0,0" style="fill:#ffffff;fill-opacity:1;fill-rule:nonzero;stroke:none" id="path252"/>
              </g>
            </g>
          </g>
        </g>
        <g id="g260">
          <g id="g262"/>
          <g id="g274">
            <g clip-path="url(#clipPath266)" opacity="0.399994" id="g272">
              <g transform="translate(382.1416,289.7773)" id="g270">
                <path d="m 0,0 c 0,0 0.03,-2.258 -1.958,-2.522 0,0 0.793,1.215 -0.083,2.783 z" style="fill:#ffffff;fill-opacity:1;fill-rule:nonzero;stroke:none" id="path268"/>
              </g>
            </g>
          </g>
        </g>
        <g id="g276" transform="translate(373.6045,286.2417)">
          <path d="M 0,0 C -0.561,-0.198 -0.857,0.264 -1.154,1.78 -1.451,3.297 -3.077,4.946 -1.846,5.549 -0.923,6 0.033,4.121 0.461,3.231 0.89,2.341 0.561,0.198 0,0 m 8.901,4.879 c 0,0 -1.291,0.396 -1.291,1.121 0,0.725 0.725,1.406 0.725,1.406 L 7.083,8.439 0.621,4.879 c 0,0 -1.808,2.901 -3.489,1.121 -0.74,-0.783 0.245,-2.888 0.658,-4.073 0.615,-1.766 0.562,-3.02 1.979,-3.015 2.117,0.008 1.841,3.33 1.841,3.33 l 7.291,1.012 z" style="fill:#007cff;fill-opacity:1;fill-rule:nonzero;stroke:none" id="path278"/>
        </g>
        <g id="g280" transform="translate(236.231,352.6372)">
          <path d="m 0,0 4.075,1.018 3.441,10.059 c 0,0 0.396,4.549 -3.758,6.132 -4.154,1.583 -8.506,-5.934 -8.506,-5.934 0,0 1.583,-10.681 4.748,-11.275" style="fill:#fe8a7b;fill-opacity:1;fill-rule:nonzero;stroke:none" id="path282"/>
        </g>
        <g id="g284" transform="translate(227.4878,186.6768)">
          <path d="M 0,0 C -1.36,-0.163 -2.595,0.807 -2.758,2.167 -2.921,3.526 -1.951,4.762 -0.591,4.925 0.769,5.088 2.003,4.117 2.167,2.758 2.33,1.397 1.36,0.163 0,0 M -2.603,7.926 C -2.711,8.824 -2.069,9.642 -1.17,9.749 -0.271,9.857 0.546,9.216 0.654,8.316 0.762,7.417 0.12,6.601 -0.779,6.492 -1.679,6.385 -2.495,7.026 -2.603,7.926 M 1.308,7.262 C 1.52,7.82 1.53,8.472 1.258,9.115 0.941,9.866 0.223,10.417 -0.584,10.533 -2.262,10.774 -3.583,9.386 -3.396,7.83 -3.347,7.417 -3.197,7.041 -2.973,6.723 -2.546,6.116 -2.611,5.331 -3.086,4.761 -3.867,3.824 -4.175,2.5 -3.689,1.171 c 0.457,-1.25 1.626,-2.167 2.948,-2.313 2.43,-0.266 4.318,1.766 4.046,4.036 C 3.184,3.904 2.656,4.762 1.905,5.331 1.302,5.788 1.039,6.554 1.308,7.262" style="fill:#1a2e35;fill-opacity:1;fill-rule:nonzero;stroke:none" id="path286"/>
        </g>
        <g id="g288">
          <g id="g290"/>
          <g id="g302">
            <g clip-path="url(#clipPath294)" opacity="0.600006" id="g300">
              <g transform="translate(227.4878,186.6768)" id="g298">
                <path d="M 0,0 C -1.36,-0.163 -2.595,0.807 -2.758,2.167 -2.921,3.526 -1.951,4.762 -0.591,4.925 0.769,5.088 2.003,4.117 2.167,2.758 2.33,1.397 1.36,0.163 0,0 M -2.603,7.926 C -2.711,8.824 -2.069,9.642 -1.17,9.749 -0.271,9.857 0.546,9.216 0.654,8.316 0.762,7.417 0.12,6.601 -0.779,6.492 -1.679,6.385 -2.495,7.026 -2.603,7.926 M 1.308,7.262 C 1.52,7.82 1.53,8.472 1.258,9.115 0.941,9.866 0.223,10.417 -0.584,10.533 -2.262,10.774 -3.583,9.386 -3.396,7.83 -3.347,7.417 -3.197,7.041 -2.973,6.723 -2.546,6.116 -2.611,5.331 -3.086,4.761 -3.867,3.824 -4.175,2.5 -3.689,1.171 c 0.457,-1.25 1.626,-2.167 2.948,-2.313 2.43,-0.266 4.318,1.766 4.046,4.036 C 3.184,3.904 2.656,4.762 1.905,5.331 1.302,5.788 1.039,6.554 1.308,7.262" style="fill:#ffffff;fill-opacity:1;fill-rule:nonzero;stroke:none" id="path296"/>
              </g>
            </g>
          </g>
        </g>
        <g id="g304" transform="translate(213.2773,195.1553)">
          <path d="M 0,0 C 0.924,0.069 1.926,0.086 2.281,-0.833 2.81,-2.2 2.378,-5.119 1.934,-8.421 c -0.237,-1.767 -4.042,-1.985 -5.335,-0.288 -0.47,0.617 0.148,2.285 0.148,2.285 l 0.95,-0.275 c 0,0 -0.494,-0.819 0.004,-1.227 1.208,-0.991 2.307,-0.863 2.913,-0.078 0.152,0.198 1.05,6.286 0.705,6.695 -0.536,0.636 -1.3,0.411 -1.55,0.114 -0.825,-0.98 -2.072,-5.504 -2.072,-5.504 l -0.763,0.539 c 0,0 0.689,2.069 1.239,3.944 C -1.625,-1.527 -1.035,-0.077 0,0" style="fill:#1a2e35;fill-opacity:1;fill-rule:nonzero;stroke:none" id="path306"/>
        </g>
        <g id="g308">
          <g id="g310"/>
          <g id="g322">
            <g clip-path="url(#clipPath314)" opacity="0.600006" id="g320">
              <g transform="translate(213.2773,195.1553)" id="g318">
                <path d="M 0,0 C 0.924,0.069 1.926,0.086 2.281,-0.833 2.81,-2.2 2.378,-5.119 1.934,-8.421 c -0.237,-1.767 -4.042,-1.985 -5.335,-0.288 -0.47,0.617 0.148,2.285 0.148,2.285 l 0.95,-0.275 c 0,0 -0.494,-0.819 0.004,-1.227 1.208,-0.991 2.307,-0.863 2.913,-0.078 0.152,0.198 1.05,6.286 0.705,6.695 -0.536,0.636 -1.3,0.411 -1.55,0.114 -0.825,-0.98 -2.072,-5.504 -2.072,-5.504 l -0.763,0.539 c 0,0 0.689,2.069 1.239,3.944 C -1.625,-1.527 -1.035,-0.077 0,0" style="fill:#ffffff;fill-opacity:1;fill-rule:nonzero;stroke:none" id="path316"/>
              </g>
            </g>
          </g>
        </g>
        <g id="g324" transform="translate(220.3267,191.3301)">
          <path d="m 0,0 c -1.063,0.396 -2.235,0.757 -2.966,-0.202 -1.087,-1.428 -1.576,-5.006 -2.179,-9.039 -0.323,-2.156 4.076,-3.712 6.174,-2.156 0.762,0.564 0.605,2.736 0.605,2.736 H 0.423 c 0,0 0.302,-1.13 -0.423,-1.441 -1.757,-0.752 -3.006,-0.228 -3.45,0.902 -0.112,0.284 0.908,7.747 1.452,8.11 0.848,0.566 1.669,0.04 1.862,-0.395 0.635,-1.432 0.559,-7.176 0.559,-7.176 l 1.081,0.374 c 0,0 -0.105,2.667 -0.112,5.058 C 1.389,-2.35 1.19,-0.444 0,0" style="fill:#1a2e35;fill-opacity:1;fill-rule:nonzero;stroke:none" id="path326"/>
        </g>
        <g id="g328">
          <g id="g330"/>
          <g id="g342">
            <g clip-path="url(#clipPath334)" opacity="0.600006" id="g340">
              <g transform="translate(220.3267,191.3301)" id="g338">
                <path d="m 0,0 c -1.063,0.396 -2.235,0.757 -2.966,-0.202 -1.087,-1.428 -1.576,-5.006 -2.179,-9.039 -0.323,-2.156 4.076,-3.712 6.174,-2.156 0.762,0.564 0.605,2.736 0.605,2.736 H 0.423 c 0,0 0.302,-1.13 -0.423,-1.441 -1.757,-0.752 -3.006,-0.228 -3.45,0.902 -0.112,0.284 0.908,7.747 1.452,8.11 0.848,0.566 1.669,0.04 1.862,-0.395 0.635,-1.432 0.559,-7.176 0.559,-7.176 l 1.081,0.374 c 0,0 -0.105,2.667 -0.112,5.058 C 1.389,-2.35 1.19,-0.444 0,0" style="fill:#ffffff;fill-opacity:1;fill-rule:nonzero;stroke:none" id="path336"/>
              </g>
            </g>
          </g>
        </g>
        <g id="g344" transform="translate(219.2856,211.9014)">
          <path d="m 0,0 c 0,0 0.282,-15.066 -0.716,-22.385 0,0 0.85,-1.016 1.736,0 0,0 2.277,15.231 0.892,22.385 z" style="fill:#007cff;fill-opacity:1;fill-rule:nonzero;stroke:none" id="path346"/>
        </g>
        <g id="g348" transform="translate(226.4761,218.0205)">
          <path d="m 0,0 c 0,0 -0.282,-15.065 0.716,-22.385 0,0 -0.85,-1.016 -1.736,0 0,0 -2.277,15.232 -0.892,22.385 z" style="fill:#007cff;fill-opacity:1;fill-rule:nonzero;stroke:none" id="path350"/>
        </g>
        <g id="g352" transform="translate(216.9102,214.9258)">
          <path d="m 0,0 c 0,0 -2.017,-14.933 -4.118,-22.014 0,0 0.685,-1.134 1.715,-0.264 0,0 4.571,14.706 4.293,21.987 z" style="fill:#007cff;fill-opacity:1;fill-rule:nonzero;stroke:none" id="path354"/>
        </g>
        <g id="g356" transform="translate(232.2432,246.6152)">
          <path d="m 0,0 c 0,0 -3.792,6.33 -6.43,7.517 -2.637,1.186 -5.802,-1.319 -5.406,-1.582 0.395,-0.264 1.186,-0.792 1.186,-0.792 0,0 -10.154,-2.901 -11.34,-6.989 -1.187,-4.088 0.395,-13.055 8.307,-11.209 C -5.771,-11.209 2.966,-4.275 0,0" style="fill:#007cff;fill-opacity:1;fill-rule:nonzero;stroke:none" id="path358"/>
        </g>
        <g id="g360">
          <g id="g362"/>
          <g id="g374">
            <g clip-path="url(#clipPath366)" opacity="0.199997" id="g372">
              <g transform="translate(232.2432,246.6152)" id="g370">
                <path d="m 0,0 c 0,0 -3.792,6.33 -6.43,7.517 -2.637,1.186 -5.802,-1.319 -5.406,-1.582 0.395,-0.264 1.186,-0.792 1.186,-0.792 0,0 -10.154,-2.901 -11.34,-6.989 -1.187,-4.088 0.395,-13.055 8.307,-11.209 C -5.771,-11.209 2.966,-4.275 0,0" style="fill:#000000;fill-opacity:1;fill-rule:nonzero;stroke:none" id="path368"/>
              </g>
            </g>
          </g>
        </g>
        <g id="g376" transform="translate(264.1211,224.7578)">
          <path d="m 0,0 c 0,0 -0.594,-4.252 -0.495,-4.747 0.099,-0.494 1.879,-2.076 2.967,-3.956 1.088,-1.879 -3.758,-6.032 -3.758,-6.032 h -1.78 c 0,0 2.137,3.319 2.849,4.181 0.711,0.862 -1.86,3.334 -2.058,3.631 -0.198,0.297 -0.791,6.405 -0.791,6.405 z" style="fill:#1a2e35;fill-opacity:1;fill-rule:nonzero;stroke:none" id="path378"/>
        </g>
        <g id="g380" transform="translate(213.187,239.1982)">
          <path d="m 0,0 c 0,0 4.252,3.264 4.648,3.164 0.396,-0.099 1.978,0.1 3.758,0.594 1.781,0.494 8.704,3.659 8.704,3.659 l 2.274,-1.385 -18.791,-8.9 z" style="fill:#1a2e35;fill-opacity:1;fill-rule:nonzero;stroke:none" id="path382"/>
        </g>
        <g id="g384" transform="translate(261.5493,300.8555)">
          <path d="m 0,0 c 0,0 14.216,-20.524 38.833,-21.639 0,0 -9.186,-26.836 -34.844,-48.429 l -30.802,15.261 c 0,0 21.855,31.209 26.813,54.807" style="fill:#007cff;fill-opacity:1;fill-rule:nonzero;stroke:none" id="path386"/>
        </g>
        <g id="g388" transform="translate(272.7329,286.6587)">
          <path d="m 0,0 c 0.823,-5.109 8.96,-9.956 8.96,-9.956 0,0 5.578,-2.399 5.758,-0.202 -2.341,2.597 -2.642,4.898 -1.897,6.938 0.436,1.188 1.231,2.281 2.184,3.298 0.495,0.54 1.042,1.049 1.599,1.539 l -3.71,13.949 C 10.546,10.187 5.495,0.874 0,0" style="fill:#fe8a7b;fill-opacity:1;fill-rule:nonzero;stroke:none" id="path390"/>
        </g>
        <g id="g392">
          <g id="g394"/>
          <g id="g406">
            <g clip-path="url(#clipPath398)" opacity="0.199997" id="g404">
              <g transform="translate(284.3164,296.2861)" id="g402">
                <path d="m 0,0 c -3.981,-5.728 -0.708,-10.796 1.237,-12.847 0.436,1.187 1.231,2.28 2.184,3.298 z" style="fill:#000000;fill-opacity:1;fill-rule:nonzero;stroke:none" id="path400"/>
              </g>
            </g>
          </g>
        </g>
        <g id="g408" transform="translate(302.5557,314.8462)">
          <path d="M 0,0 C 0,0 2.388,-11.047 -3.265,-15.704 -8.918,-20.361 -10.207,0.4 -10.207,0.4 Z" style="fill:#1a2e35;fill-opacity:1;fill-rule:nonzero;stroke:none" id="path410"/>
        </g>
        <g id="g412" transform="translate(282.6558,289.2119)">
          <path d="m 0,0 c 3.128,-3.95 7.879,-4.74 11.866,-3.201 2.564,0.986 4.809,2.944 6.109,5.639 0.174,0.353 0.327,0.724 0.469,1.104 2.49,6.996 2.677,18.975 -4.807,22.995 C 8.321,29.442 1.642,27.487 -1.262,22.161 -2.098,20.652 -2.551,18.96 -2.609,17.23 -3,9.208 -3.607,4.509 0,0" style="fill:#fe8a7b;fill-opacity:1;fill-rule:nonzero;stroke:none" id="path414"/>
        </g>
        <g id="g416" transform="translate(291.9263,302.9058)">
          <path d="M 0,0 C -0.114,-0.639 0.213,-1.211 0.645,-1.257 1.077,-1.303 1.469,-0.807 1.543,-0.16 1.617,0.486 1.32,1.053 0.898,1.097 0.477,1.141 0.076,0.657 0,0" style="fill:#1a2e35;fill-opacity:1;fill-rule:nonzero;stroke:none" id="path418"/>
        </g>
        <g id="g420" transform="translate(299.2764,302.1157)">
          <path d="M 0,0 C -0.114,-0.64 0.223,-1.213 0.645,-1.257 1.067,-1.301 1.469,-0.808 1.543,-0.161 1.617,0.486 1.32,1.053 0.898,1.097 0.477,1.141 0.068,0.616 0,0" style="fill:#1a2e35;fill-opacity:1;fill-rule:nonzero;stroke:none" id="path422"/>
        </g>
        <g id="g424" transform="translate(296.9067,302.0469)">
          <path d="M 0,0 C 0.56,-2.072 1.404,-4.056 2.508,-5.897 1.534,-6.446 0.367,-6.537 -0.68,-6.144 Z" style="fill:#fe5652;fill-opacity:1;fill-rule:nonzero;stroke:none" id="path426"/>
        </g>
        <g id="g428" transform="translate(302.3394,304.9624)">
          <path d="m 0,0 c -0.132,-0.056 -0.284,-0.037 -0.398,0.05 -0.754,0.62 -1.756,0.848 -2.705,0.616 -0.199,-0.069 -0.416,0.038 -0.484,0.237 -0.069,0.199 0.037,0.416 0.237,0.485 0,0 10e-4,0 10e-4,0 1.192,0.325 2.466,0.052 3.42,-0.732 C 0.241,0.531 0.277,0.292 0.152,0.123 0.15,0.12 0.148,0.118 0.146,0.115 0.104,0.069 0.055,0.031 0,0" style="fill:#1a2e35;fill-opacity:1;fill-rule:nonzero;stroke:none" id="path430"/>
        </g>
        <g id="g432" transform="translate(290.7881,306.002)">
          <path d="M 0,0 C -0.077,0.01 -0.148,0.045 -0.204,0.098 -0.326,0.271 -0.285,0.509 -0.113,0.63 -0.11,0.632 -0.108,0.633 -0.106,0.635 0.901,1.357 2.196,1.544 3.366,1.136 3.56,1.055 3.652,0.832 3.571,0.637 V 0.636 C 3.486,0.445 3.266,0.355 3.071,0.431 2.138,0.726 1.121,0.562 0.328,-0.009 0.223,-0.055 0.103,-0.051 0,0" style="fill:#1a2e35;fill-opacity:1;fill-rule:nonzero;stroke:none" id="path434"/>
        </g>
        <g id="g436" transform="translate(286.9766,315.7739)">
          <path d="m 0,0 0.221,-3.56 c -1.196,-0.548 -1.972,-1.815 -1.521,-3.238 0.964,-3.041 -0.997,-7.551 -3.387,-9.253 0,0 0.006,1.292 -1.099,1.051 -1.105,-0.24 -1.204,-6.964 0.725,-10.289 0,0 -3.034,3.084 -4.424,10.232 -1.287,6.611 -1.172,12.049 0.316,14.488 z" style="fill:#1a2e35;fill-opacity:1;fill-rule:nonzero;stroke:none" id="path438"/>
        </g>
        <g id="g440" transform="translate(295.5063,293.897)">
          <path d="m 0,0 c -0.604,-0.936 -1.326,-2.748 -1.326,-2.748 -0.176,0.037 -0.352,0.072 -0.526,0.117 -2.374,0.548 -3.294,1.586 -3.595,2.57 -0.163,0.54 -0.133,1.068 -0.054,1.487 0.086,0.485 0.259,0.81 0.259,0.81 C -4.157,1.194 -1.983,0.514 -0.807,0.199 -0.315,0.062 0,0 0,0" style="fill:#1a2e35;fill-opacity:1;fill-rule:nonzero;stroke:none" id="path442"/>
        </g>
        <g id="g444" transform="translate(294.6997,294.0962)">
          <path d="m 0,0 -0.412,-0.8 c -2.234,0.521 -3.738,1.187 -4.282,2.027 0.086,0.484 0.258,0.81 0.258,0.81 C -3.35,0.995 -1.176,0.315 0,0" style="fill:#ffffff;fill-opacity:1;fill-rule:nonzero;stroke:none" id="path446"/>
        </g>
        <g id="g448" transform="translate(293.6543,291.2661)">
          <path d="M 0,0 C -2.374,0.547 -3.294,1.585 -3.595,2.57 -2.793,2.353 -1.851,2.001 -1.08,1.44 -0.488,1.014 -0.174,0.494 0,0" style="fill:#fe5652;fill-opacity:1;fill-rule:nonzero;stroke:none" id="path450"/>
        </g>
        <g id="g452" transform="translate(287.1978,312.2139)">
          <path d="m 0,0 c 0,0 17.199,-5.408 14.446,6.432 0,0 -9.002,5.478 -17.258,3.405 -8.255,-2.072 -7.087,-10.681 -7.087,-10.681 z" style="fill:#1a2e35;fill-opacity:1;fill-rule:nonzero;stroke:none" id="path454"/>
        </g>
        <g id="g456" transform="translate(283.9009,306.8535)">
          <path d="m 0,0 c 0,0 -0.749,-10.524 1.736,-17.315 2.484,-6.791 7.373,-5.011 8.885,-3.527 L 8.55,-21.416 c 0,0 -1.701,-0.844 -3.114,0.475 -1.414,1.318 -4.932,6.513 -3.7,21.388 z" style="fill:#1a2e35;fill-opacity:1;fill-rule:nonzero;stroke:none" id="path458"/>
        </g>
        <g id="g460">
          <g id="g462"/>
          <g id="g474">
            <g clip-path="url(#clipPath466)" opacity="0.199997" id="g472">
              <g transform="translate(283.9009,306.8535)" id="g470">
                <path d="m 0,0 c 0,0 -0.749,-10.524 1.736,-17.315 2.484,-6.791 7.373,-5.011 8.885,-3.527 L 8.55,-21.416 c 0,0 -1.701,-0.844 -3.114,0.475 -1.414,1.318 -4.932,6.513 -3.7,21.388 z" style="fill:#ffffff;fill-opacity:1;fill-rule:nonzero;stroke:none" id="path468"/>
              </g>
            </g>
          </g>
        </g>
        <g id="g476" transform="translate(293.6543,323.0991)">
          <path d="m 0,0 c -10.874,2.901 -18.654,-3.803 -20.921,-12.058 -0.436,-1.587 0.661,-7.347 2.135,-11.217 l 2.953,-1.644 c 0,0 -0.143,5.367 1.195,6.883 1.37,1.552 2.988,1.411 3.886,1.16 0.49,-0.137 1.009,-0.041 1.434,0.239 2.355,1.557 9.743,6.21 14.089,6.351 5.221,0.169 5.784,-1.121 5.784,-1.121 l 0.791,1.725 c 0,0 -0.471,6.781 -11.346,9.682" style="fill:#007cff;fill-opacity:1;fill-rule:nonzero;stroke:none" id="path478"/>
        </g>
        <g id="g480">
          <g id="g482"/>
          <g id="g494">
            <g clip-path="url(#clipPath486)" opacity="0.199997" id="g492">
              <g transform="translate(293.6543,323.0991)" id="g490">
                <path d="m 0,0 c -10.874,2.901 -18.654,-3.803 -20.921,-12.058 -0.436,-1.587 0.661,-7.347 2.135,-11.217 l 2.953,-1.644 c 0,0 -0.143,5.367 1.195,6.883 1.37,1.552 2.988,1.411 3.886,1.16 0.49,-0.137 1.009,-0.041 1.434,0.239 2.355,1.557 9.743,6.21 14.089,6.351 5.221,0.169 5.784,-1.121 5.784,-1.121 l 0.791,1.725 c 0,0 -0.471,6.781 -11.346,9.682" style="fill:#ffffff;fill-opacity:1;fill-rule:nonzero;stroke:none" id="path488"/>
              </g>
            </g>
          </g>
        </g>
        <g id="g496" transform="translate(276.8042,298.4614)">
          <path d="m 0,0 c 0,0 0.24,5.651 2.35,8.023 2.109,2.373 4.417,0.744 4.747,0.866 0.33,0.122 5.773,5.067 10.799,6.254 5.025,1.187 8.824,0.256 9.991,-0.861 v -1.315 l -0.812,-0.066 c 0,0 -0.089,1.847 -6.177,1.121 C 14.811,13.297 8.547,7.262 7.69,7.247 6.833,7.231 5.629,7.862 4.23,7.247 2.066,6.294 1.097,0.543 1.427,-0.615 1.427,-0.615 0.69,-1.187 0,0" style="fill:#1a2e35;fill-opacity:1;fill-rule:nonzero;stroke:none" id="path498"/>
        </g>
        <g id="g500">
          <g id="g502"/>
          <g id="g514">
            <g clip-path="url(#clipPath506)" opacity="0.300003" id="g512">
              <g transform="translate(276.8042,298.4614)" id="g510">
                <path d="m 0,0 c 0,0 0.24,5.651 2.35,8.023 2.109,2.373 4.417,0.744 4.747,0.866 0.33,0.122 5.773,5.067 10.799,6.254 5.025,1.187 8.824,0.256 9.991,-0.861 v -1.315 l -0.812,-0.066 c 0,0 -0.089,1.847 -6.177,1.121 C 14.811,13.297 8.547,7.262 7.69,7.247 6.833,7.231 5.629,7.862 4.23,7.247 2.066,6.294 1.097,0.543 1.427,-0.615 1.427,-0.615 0.69,-1.187 0,0" style="fill:#ffffff;fill-opacity:1;fill-rule:nonzero;stroke:none" id="path508"/>
              </g>
            </g>
          </g>
        </g>
        <g id="g516">
          <g id="g518"/>
          <g id="g530">
            <g clip-path="url(#clipPath522)" opacity="0.199997" id="g528">
              <g transform="translate(297.3516,318.0879)" id="g526">
                <path d="m 0,0 c 0,0 -5.711,4.813 -9.614,5.209 0,0 2.475,0.527 4.166,0 C -3.758,4.681 1.714,1.583 0,0" style="fill:#000000;fill-opacity:1;fill-rule:nonzero;stroke:none" id="path524"/>
              </g>
            </g>
          </g>
        </g>
        <g id="g532">
          <g id="g534"/>
          <g id="g546">
            <g clip-path="url(#clipPath538)" opacity="0.199997" id="g544">
              <g transform="translate(293.1401,318.0879)" id="g542">
                <path d="m 0,0 c -1.952,2.215 -8.757,3.824 -11.24,3.626 -2.483,-0.197 -3.933,-2.637 -3.933,-2.637 0,0 10.898,-0.462 13.229,-1.385 C 0.387,-1.319 0.328,-0.372 0,0" style="fill:#000000;fill-opacity:1;fill-rule:nonzero;stroke:none" id="path540"/>
              </g>
            </g>
          </g>
        </g>
        <g id="g548">
          <g id="g550"/>
          <g id="g562">
            <g clip-path="url(#clipPath554)" opacity="0.199997" id="g560">
              <g transform="translate(298.731,320.8096)" id="g558">
                <path d="m 0,0 c 0,0 2.129,-1.613 2.913,-3.486 0.785,-1.873 1.612,-0.687 1.002,0.369 0,0 -1.496,1.685 -3.915,3.117" style="fill:#000000;fill-opacity:1;fill-rule:nonzero;stroke:none" id="path556"/>
              </g>
            </g>
          </g>
        </g>
        <g id="g564" transform="translate(279.7466,295.6494)">
          <path d="M 0,0 C 0,0 2.285,-2.749 5.89,-3.737 L 6.33,-5.452 C 6.33,-5.452 2.725,-4.933 0,0" style="fill:#1a2e35;fill-opacity:1;fill-rule:nonzero;stroke:none" id="path566"/>
        </g>
        <g id="g568">
          <g id="g570"/>
          <g id="g582">
            <g clip-path="url(#clipPath574)" opacity="0.199997" id="g580">
              <g transform="translate(279.7466,295.6494)" id="g578">
                <path d="M 0,0 C 0,0 2.285,-2.749 5.89,-3.737 L 6.33,-5.452 C 6.33,-5.452 2.725,-4.933 0,0" style="fill:#ffffff;fill-opacity:1;fill-rule:nonzero;stroke:none" id="path576"/>
              </g>
            </g>
          </g>
        </g>
        <g id="g584" transform="translate(275.854,300.27)">
          <path d="M 0,0 C 0.691,-1.902 2.109,-3.452 3.942,-4.31 6.376,-5.43 8.015,-3.351 7.698,-0.83 7.396,1.408 5.784,4.758 3.162,4.793 0.54,4.828 -0.819,2.346 0,0" style="fill:#fe8a7b;fill-opacity:1;fill-rule:nonzero;stroke:none" id="path586"/>
        </g>
        <g id="g588" transform="translate(234.2217,247.9902)">
          <path d="m 0,0 -9.876,-6.862 c 0,0 -40.207,-9.821 -55.433,-17.063 -21.126,-10.051 -65.25,-47.828 -65.25,-47.828 l 5.069,-4.887 c 0,0 51.751,28.844 62.067,33.312 10.316,4.467 57.865,7.849 57.865,7.849 0,0 21.591,-34.813 22.653,-40.862 1.062,-6.049 -51.682,-18.931 -51.682,-18.931 l 3.546,-9.44 c 0,0 55.275,9.483 64.377,16.235 9.102,6.753 -7.998,56.664 -7.998,56.664 l 3.788,11.207 z" style="fill:#fe8a7b;fill-opacity:1;fill-rule:nonzero;stroke:none" id="path590"/>
        </g>
        <g id="g592" transform="translate(234.2217,247.9902)">
          <path d="m 0,0 -11.31,-5.595 -37.714,-11.608 5.802,-23.396 37.187,2.828 17.407,-29.801 24.633,4.219 -9.337,33.052 4.22,11.52 z" style="fill:#1a2e35;fill-opacity:1;fill-rule:nonzero;stroke:none" id="path594"/>
        </g>
        <g id="g596">
          <g id="g598"/>
          <g id="g610">
            <g clip-path="url(#clipPath602)" opacity="0.399994" id="g608">
              <g transform="translate(234.2217,247.9902)" id="g606">
                <path d="m 0,0 -11.31,-5.595 -37.714,-11.608 5.802,-23.396 37.187,2.828 17.407,-29.801 24.633,4.219 -9.337,33.052 4.22,11.52 z" style="fill:#ffffff;fill-opacity:1;fill-rule:nonzero;stroke:none" id="path604"/>
              </g>
            </g>
          </g>
        </g>
        <g id="g612" transform="translate(236.4287,251.7578)">
          <path d="M 0,0 32.044,-20.971 27.692,-29.67 -7.261,-5.137 Z" style="fill:#1a2e35;fill-opacity:1;fill-rule:nonzero;stroke:none" id="path614"/>
        </g>
        <g id="g616" transform="translate(204.46,237.4502)">
          <path d="m 0,0 10.096,3.048 5.851,-31.663 -10.39,-0.891 z" style="fill:#1a2e35;fill-opacity:1;fill-rule:nonzero;stroke:none" id="path618"/>
        </g>
        <g id="g620" transform="translate(231.8789,202.3008)">
          <path d="M 0,0 31.154,9.601 33.824,0.699 5.242,-8.696 Z" style="fill:#1a2e35;fill-opacity:1;fill-rule:nonzero;stroke:none" id="path622"/>
        </g>
        <g id="g624" transform="translate(233.165,250.9668)">
          <path d="M 0,0 34.394,-23.967 33.132,-26.209 -1.978,-1.78 Z" style="fill:#007cff;fill-opacity:1;fill-rule:nonzero;stroke:none" id="path626"/>
        </g>
        <g id="g628" transform="translate(211.8022,240.498)">
          <path d="M 0,0 5.341,-32.554 H 1.978 L -3.857,-1.3 Z" style="fill:#007cff;fill-opacity:1;fill-rule:nonzero;stroke:none" id="path630"/>
        </g>
        <g id="g632" transform="translate(232.8066,199.4766)">
          <path d="M 0,0 31.809,9.655 32.896,6.392 1.929,-3.301 Z" style="fill:#007cff;fill-opacity:1;fill-rule:nonzero;stroke:none" id="path634"/>
        </g>
        <g id="g636" transform="translate(203.3813,142.46)">
          <path d="m 0,0 1.075,10.078 c 0.034,0.34 -0.171,0.658 -0.494,0.768 L -6.632,13.27 C -7.279,13.479 -7.973,13.126 -8.184,12.479 -8.212,12.394 -8.23,12.304 -8.239,12.213 -8.534,8.947 -8.587,6.551 -9.023,2.456 c -0.269,-2.521 -1.345,-10.102 -1.716,-13.585 -0.371,-3.482 3.02,-4.303 3.489,-2.912 2.075,6.246 4.52,10.853 6.574,12.704 C -0.288,-0.995 -0.045,-0.516 0,0" style="fill:#007cff;fill-opacity:1;fill-rule:nonzero;stroke:none" id="path638"/>
        </g>
        <g id="g640" transform="translate(103.0146,177.4326)">
          <path d="M 0,0 7.911,-6.335 C 8.177,-6.55 8.259,-6.92 8.108,-7.227 l -3.359,-6.827 c -0.307,-0.607 -1.047,-0.851 -1.654,-0.546 -0.081,0.041 -0.158,0.091 -0.228,0.149 -2.527,2.092 -4.264,3.741 -7.479,6.315 -1.979,1.586 -8.118,6.161 -10.852,8.351 -2.734,2.189 -0.927,5.175 0.39,4.528 C -9.178,1.816 -4.187,0.308 -1.425,0.462 -0.909,0.497 -0.398,0.331 0,0" style="fill:#007cff;fill-opacity:1;fill-rule:nonzero;stroke:none" id="path642"/>
        </g>
        <g id="g644" transform="translate(240.3779,245.0557)">
          <path d="M 0,0 C -1.346,0.253 -2.232,1.55 -1.979,2.896 -1.727,4.242 -0.43,5.128 0.916,4.875 2.262,4.622 3.148,3.326 2.896,1.979 2.643,0.634 1.346,-0.253 0,0 M -0.102,8.342 C 0.065,9.232 0.923,9.818 1.813,9.651 2.703,9.483 3.29,8.626 3.122,7.736 2.955,6.846 2.098,6.26 1.208,6.427 0.317,6.595 -0.269,7.452 -0.102,8.342 M 3.429,6.534 C 3.8,7.004 4.005,7.621 3.939,8.317 3.862,9.129 3.342,9.87 2.607,10.223 1.079,10.957 -0.598,10.029 -0.887,8.489 -0.964,8.08 -0.934,7.677 -0.816,7.307 -0.591,6.599 -0.888,5.87 -1.513,5.469 -2.54,4.81 -3.23,3.64 -3.167,2.226 -3.106,0.896 -2.267,-0.33 -1.049,-0.865 1.188,-1.85 3.6,-0.479 4.022,1.769 4.21,2.769 3.964,3.745 3.419,4.513 2.981,5.13 2.96,5.939 3.429,6.534" style="fill:#1a2e35;fill-opacity:1;fill-rule:nonzero;stroke:none" id="path646"/>
        </g>
        <g id="g648">
          <g id="g650"/>
          <g id="g662">
            <g clip-path="url(#clipPath654)" opacity="0.399994" id="g660">
              <g transform="translate(240.3779,245.0557)" id="g658">
                <path d="M 0,0 C -1.346,0.253 -2.232,1.55 -1.979,2.896 -1.727,4.242 -0.43,5.128 0.916,4.875 2.262,4.622 3.148,3.326 2.896,1.979 2.643,0.634 1.346,-0.253 0,0 M -0.102,8.342 C 0.065,9.232 0.923,9.818 1.813,9.651 2.703,9.483 3.29,8.626 3.122,7.736 2.955,6.846 2.098,6.26 1.208,6.427 0.317,6.595 -0.269,7.452 -0.102,8.342 M 3.429,6.534 C 3.8,7.004 4.005,7.621 3.939,8.317 3.862,9.129 3.342,9.87 2.607,10.223 1.079,10.957 -0.598,10.029 -0.887,8.489 -0.964,8.08 -0.934,7.677 -0.816,7.307 -0.591,6.599 -0.888,5.87 -1.513,5.469 -2.54,4.81 -3.23,3.64 -3.167,2.226 -3.106,0.896 -2.267,-0.33 -1.049,-0.865 1.188,-1.85 3.6,-0.479 4.022,1.769 4.21,2.769 3.964,3.745 3.419,4.513 2.981,5.13 2.96,5.939 3.429,6.534" style="fill:#ffffff;fill-opacity:1;fill-rule:nonzero;stroke:none" id="path656"/>
              </g>
            </g>
          </g>
        </g>
        <g id="g664" transform="translate(239.7886,245.3975)">
          <path d="M 0,0 C -0.605,1.229 -0.101,2.715 1.128,3.32 2.356,3.927 3.843,3.422 4.449,2.193 5.054,0.965 4.55,-0.522 3.321,-1.128 2.093,-1.733 0.606,-1.229 0,0 M 6.611,5.088 C 7.423,5.488 8.406,5.154 8.807,4.342 9.208,3.53 8.874,2.547 8.061,2.146 7.249,1.745 6.266,2.079 5.865,2.892 5.464,3.704 5.798,4.687 6.611,5.088 M 7.284,1.179 C 7.882,1.164 8.499,1.371 9.016,1.841 9.619,2.39 9.9,3.251 9.741,4.051 9.412,5.713 7.663,6.498 6.257,5.805 5.884,5.621 5.579,5.354 5.354,5.037 4.923,4.433 4.162,4.233 3.466,4.492 2.322,4.918 0.972,4.768 -0.121,3.868 -1.148,3.022 -1.625,1.614 -1.322,0.318 c 0.555,-2.38 3.099,-3.485 5.15,-2.474 0.913,0.45 1.547,1.233 1.834,2.13 0.23,0.72 0.865,1.223 1.622,1.205" style="fill:#1a2e35;fill-opacity:1;fill-rule:nonzero;stroke:none" id="path666"/>
        </g>
        <g id="g668">
          <g id="g670"/>
          <g id="g682">
            <g clip-path="url(#clipPath674)" opacity="0.600006" id="g680">
              <g transform="translate(239.7886,245.3975)" id="g678">
                <path d="M 0,0 C -0.605,1.229 -0.101,2.715 1.128,3.32 2.356,3.927 3.843,3.422 4.449,2.193 5.054,0.965 4.55,-0.522 3.321,-1.128 2.093,-1.733 0.606,-1.229 0,0 M 6.611,5.088 C 7.423,5.488 8.406,5.154 8.807,4.342 9.208,3.53 8.874,2.547 8.061,2.146 7.249,1.745 6.266,2.079 5.865,2.892 5.464,3.704 5.798,4.687 6.611,5.088 M 7.284,1.179 C 7.882,1.164 8.499,1.371 9.016,1.841 9.619,2.39 9.9,3.251 9.741,4.051 9.412,5.713 7.663,6.498 6.257,5.805 5.884,5.621 5.579,5.354 5.354,5.037 4.923,4.433 4.162,4.233 3.466,4.492 2.322,4.918 0.972,4.768 -0.121,3.868 -1.148,3.022 -1.625,1.614 -1.322,0.318 c 0.555,-2.38 3.099,-3.485 5.15,-2.474 0.913,0.45 1.547,1.233 1.834,2.13 0.23,0.72 0.865,1.223 1.622,1.205" style="fill:#ffffff;fill-opacity:1;fill-rule:nonzero;stroke:none" id="path676"/>
              </g>
            </g>
          </g>
        </g>
        <g id="g684" transform="translate(239.9604,245.873)">
          <path d="m 0,0 c 0.156,0.624 1.427,1.836 2.626,0.721 1.2,-1.116 1.389,-4.169 1.389,-4.169 0,0 -0.671,-1.534 -2.167,-0.479 0,0 -0.013,2.501 -0.649,3.22 C 0.563,0.013 0,0 0,0" style="fill:#007cff;fill-opacity:1;fill-rule:nonzero;stroke:none" id="path686"/>
        </g>
        <g id="g688" transform="translate(241.5137,254.4492)">
          <path d="m 0,0 c 0,0 1.207,106.1 1.207,113.221 0,7.121 -13.083,10.945 -24.952,12.528" style="fill:none;stroke:#007cff;stroke-width:2;stroke-linecap:round;stroke-linejoin:round;stroke-miterlimit:10;stroke-dasharray:none;stroke-opacity:1" id="path690"/>
        </g>
        <g id="g692">
          <g id="g694"/>
          <g id="g706">
            <g clip-path="url(#clipPath698)" opacity="0.300003" id="g704">
              <g transform="translate(241.5137,254.4492)" id="g702">
                <path d="m 0,0 c 0,0 1.207,106.1 1.207,113.221 0,7.121 -13.083,10.945 -24.952,12.528" style="fill:none;stroke:#000000;stroke-width:2;stroke-linecap:round;stroke-linejoin:round;stroke-miterlimit:10;stroke-dasharray:none;stroke-opacity:1" id="path700"/>
              </g>
            </g>
          </g>
        </g>
        <g id="g708" transform="translate(247.1138,248.9746)">
          <path d="m 0,0 c 0,0 26.699,-51.626 66.062,-46.674 39.363,4.952 60.231,84.954 60.231,84.954" style="fill:none;stroke:#007cff;stroke-width:2;stroke-linecap:round;stroke-linejoin:round;stroke-miterlimit:10;stroke-dasharray:none;stroke-opacity:1" id="path710"/>
        </g>
        <g id="g712">
          <g id="g714"/>
          <g id="g726">
            <g clip-path="url(#clipPath718)" opacity="0.300003" id="g724">
              <g transform="translate(247.1138,248.9746)" id="g722">
                <path d="m 0,0 c 0,0 26.699,-51.626 66.062,-46.674 39.363,4.952 60.231,84.954 60.231,84.954" style="fill:none;stroke:#000000;stroke-width:2;stroke-linecap:round;stroke-linejoin:round;stroke-miterlimit:10;stroke-dasharray:none;stroke-opacity:1" id="path720"/>
              </g>
            </g>
          </g>
        </g>
        <g id="g728" transform="translate(227.7119,380.9097)">
          <path d="M 0,0 C 0,0 13.344,-8.391 14.176,-14.244 15.009,-20.097 1.456,-31.08 1.456,-31.08 L 0,-42.778 c 0,0 -40.668,-21.726 -42.514,-18.511 -1.846,3.214 -16.615,-3.847 -16.615,-3.847 0,0 -23.737,-36.162 -23.737,-39.605 0,-3.444 -39.114,-31.409 -41.183,-36.679 -2.07,-5.27 -8.011,-1.064 -8.011,-1.064 0,0 -19.905,-36.701 -18.322,-39.706 1.582,-3.006 10.221,-21.072 10.221,-21.072 l 10.852,-8.351 c 0,0 -3.667,-21.583 -8.414,-22.637 -4.747,-1.055 -3.864,-18.883 -3.864,-18.883 l -16.707,-18.568 -4.22,-27.944 c 0,0 -3.165,37.438 -5.802,41.131 -2.638,3.692 0,43.595 0,43.595 0,0 -3.851,11.299 -6.937,13.391 -3.085,2.091 2.03,61.176 0,62.754 -2.03,1.578 7.992,20.059 7.992,20.059 0,0 12.968,-2.269 13.605,8.878 0.636,11.147 -0.637,29.64 0,34.635 0.636,4.995 7.15,21.728 12.069,29.977 4.919,8.249 18.431,42.441 18.431,42.441 0,0 17.609,-11.105 19.719,-8.934 2.11,2.171 22.409,18.71 22.409,18.71 z" style="fill:#007cff;fill-opacity:1;fill-rule:nonzero;stroke:none" id="path730"/>
        </g>
        <g id="g732">
          <g id="g734"/>
          <g id="g746">
            <g clip-path="url(#clipPath738)" opacity="0.399994" id="g744">
              <g transform="translate(229.1699,349.8301)" id="g742">
                <path d="m 0,0 -1.46,-11.7 c 0,0 -40.67,-21.72 -42.51,-18.51 -0.31,0.55 -1.01,0.8 -1.94,0.83 -4.52,0.18 -14.68,-4.68 -14.68,-4.68 0,0 -23.73,-36.16 -23.73,-39.6 0,-3.44 -39.12,-31.41 -41.19,-36.68 -2.07,-5.27 -8.01,-1.06 -8.01,-1.06 0,0 -19.9,-36.71 -18.32,-39.71 1.58,-3.01 10.22,-21.07 10.22,-21.07 l 10.85,-8.35 c 0,0 -3.66,-21.59 -8.41,-22.64 -4.75,-1.06 -3.86,-18.88 -3.86,-18.88 l -16.71,-18.57 -4.22,-27.941 c 0,0 -2.24,26.441 -4.51,37.071 -0.44,2.02 -0.87,3.469 -1.29,4.06 -2.64,3.69 0,43.59 0,43.59 0,0 -3.86,11.3 -6.94,13.39 -3.09,2.09 2.03,61.179 0,62.76 -2.03,1.57 7.99,20.05 7.99,20.05 0,0 0.89,-0.16 2.22,-0.18 3.73,-0.08 10.92,0.84 11.39,9.06 0.15,2.61 0.19,5.63 0.17,8.78 -0.03,10.3 -0.66,22.03 -0.17,25.86 0.63,4.99 7.15,21.73 12.07,29.97 2.45,4.11 7.04,14.7 11.04,24.27 4,9.6 7.39,18.18 7.39,18.18 0,0 17.6,-11.11 19.71,-8.94 2.11,2.17 22.41,18.71 22.41,18.71 l 81.03,-6.99 c 0,0 13.35,-8.39 14.18,-14.24 C 13.55,10.98 0,0 0,0" style="fill:#ffffff;fill-opacity:1;fill-rule:nonzero;stroke:none" id="path740"/>
              </g>
            </g>
          </g>
        </g>
        <g id="g748">
          <g id="g750"/>
          <g id="g762">
            <g clip-path="url(#clipPath754)" opacity="0.100006" id="g760">
              <g transform="translate(173.73,324.5498)" id="g758">
                <path d="m 0,0 9.53,-4.1 c -4.52,0.18 -14.68,-4.68 -14.68,-4.68 0,0 -23.73,-36.16 -23.73,-39.6 0,-3.44 -39.12,-31.41 -41.19,-36.68 -2.07,-5.27 -8.01,-1.06 -8.01,-1.06 0,0 -19.9,-36.71 -18.32,-39.71 1.58,-3.01 10.22,-21.069 10.22,-21.069 l 10.85,-8.351 c 0,0 -3.66,-21.59 -8.41,-22.64 -4.75,-1.06 -3.86,-18.88 -3.86,-18.88 l -16.71,-18.57 -4.22,-27.94 c 0,0 -2.24,26.44 -4.51,37.07 l 2.27,3.26 7.51,-6.159 12.27,14.239 -8.68,6.56 -9.52,13.451 5.14,4.199 9.89,-7.76 11.47,5.54 1.59,12.66 -13.06,8.151 -17.01,-2.221 -1.19,12.01 10.68,14.97 2.38,36.51 -17.41,6.71 15.03,2.41 2.38,10.22 -11.76,8.92 c 3.73,-0.08 10.92,0.84 11.39,9.06 0.15,2.61 0.19,5.63 0.17,8.78 l 11.9,0.77 5.31,-27.53 9.1,-8.08 39.92,31.16 2.8,25.87 -17.01,13.21 -13.05,-16.4 -21.76,-5.55 17.41,13.18 13.84,18.86 -24.03,24.49 -1.49,10.12 c 4,9.6 7.39,18.18 7.39,18.18 0,0 17.6,-11.11 19.71,-8.94 l -1.58,-18.71 5.54,-23.56 34.02,-7.3 z" style="fill:#000000;fill-opacity:1;fill-rule:nonzero;stroke:none" id="path756"/>
              </g>
            </g>
          </g>
        </g>
        <g id="g764">
          <g id="g766"/>
          <g id="g778">
            <g clip-path="url(#clipPath770)" opacity="0.100006" id="g776">
              <g transform="translate(229.1699,349.8301)" id="g774">
                <path d="m 0,0 -1.46,-11.7 c 0,0 -40.67,-21.72 -42.51,-18.51 l 27.34,16.8 H -36.56 L -59.01,0 -19.27,7.83 Z" style="fill:#000000;fill-opacity:1;fill-rule:nonzero;stroke:none" id="path772"/>
              </g>
            </g>
          </g>
        </g>
        <g id="g780" transform="translate(244.4624,238.4941)">
          <path d="m 0,0 -2.574,-13.736 -25.57,-0.536 v -3.002 l 25.57,0.868 3.771,-16.561 3.106,1.075 L 0,-16.406 2.651,-2.164 Z" style="fill:#1a2e35;fill-opacity:1;fill-rule:nonzero;stroke:none" id="path782"/>
        </g>
        <g id="g784" transform="translate(239.9604,245.873)">
          <path d="M 0,0 C 0,0 -17.773,-149.931 -167.906,-128.298" style="fill:none;stroke:#007cff;stroke-width:2;stroke-linecap:round;stroke-linejoin:round;stroke-miterlimit:10;stroke-dasharray:none;stroke-opacity:1" id="path786"/>
        </g>
        <g id="g788">
          <g id="g790"/>
          <g id="g802">
            <g clip-path="url(#clipPath794)" opacity="0.300003" id="g800">
              <g transform="translate(239.9604,245.873)" id="g798">
                <path d="M 0,0 C 0,0 -17.773,-149.931 -167.906,-128.298" style="fill:none;stroke:#000000;stroke-width:2;stroke-linecap:round;stroke-linejoin:round;stroke-miterlimit:10;stroke-dasharray:none;stroke-opacity:1" id="path796"/>
              </g>
            </g>
          </g>
        </g>
        <g id="g804" transform="translate(234.9102,228.5996)">
          <path d="m 0,0 0.43,1 c 0,0 0.09,-0.09 0.26,-0.239 L 0.41,-0.34 C 0.15,-0.13 0,0 0,0" style="fill:#1a2e35;fill-opacity:1;fill-rule:nonzero;stroke:none" id="path806"/>
        </g>
        <g id="g808" transform="translate(241.73,224.3203)">
          <path d="M 0,0 C -1.08,-0.551 -2.56,0.529 -3.18,1.1 -3.7,1.569 -4.25,2.05 -4.75,2.5 l 0.27,1.069 C -3.24,2.52 -1.72,1.31 -0.96,1.05 -0.53,0.91 0.37,1.149 0.51,2.109 0.61,2.729 -4,8.26 -4.27,8.359 -5.36,8.779 -6.53,8.229 -7.13,6.51 -7.38,5.8 -6.39,5.279 -6.39,5.279 L -7.17,4.43 c 0,0 -1.63,1.29 -1.54,2.19 0.25,2.48 4.18,4.579 5.5,2.97 C -0.75,6.56 1.46,3.91 1.76,2.229 1.97,1.09 0.96,0.5 0,0" style="fill:#1a2e35;fill-opacity:1;fill-rule:nonzero;stroke:none" id="path810"/>
        </g>
        <g id="g812">
          <g id="g814"/>
          <g id="g826">
            <g clip-path="url(#clipPath818)" opacity="0.600006" id="g824">
              <g transform="translate(234.9102,228.5996)" id="g822">
                <path d="m 0,0 0.43,1 c 0,0 0.09,-0.09 0.26,-0.239 L 0.41,-0.34 C 0.15,-0.13 0,0 0,0" style="fill:#ffffff;fill-opacity:1;fill-rule:nonzero;stroke:none" id="path820"/>
              </g>
            </g>
          </g>
        </g>
        <g id="g828">
          <g id="g830"/>
          <g id="g842">
            <g clip-path="url(#clipPath834)" opacity="0.600006" id="g840">
              <g transform="translate(241.73,224.3203)" id="g838">
                <path d="M 0,0 C -1.08,-0.551 -2.56,0.529 -3.18,1.1 -3.7,1.569 -4.25,2.05 -4.75,2.5 l 0.27,1.069 C -3.24,2.52 -1.72,1.31 -0.96,1.05 -0.53,0.91 0.37,1.149 0.51,2.109 0.61,2.729 -4,8.26 -4.27,8.359 -5.36,8.779 -6.53,8.229 -7.13,6.51 -7.38,5.8 -6.39,5.279 -6.39,5.279 L -7.17,4.43 c 0,0 -1.63,1.29 -1.54,2.19 0.25,2.48 4.18,4.579 5.5,2.97 C -0.75,6.56 1.46,3.91 1.76,2.229 1.97,1.09 0.96,0.5 0,0" style="fill:#ffffff;fill-opacity:1;fill-rule:nonzero;stroke:none" id="path836"/>
              </g>
            </g>
          </g>
        </g>
        <g id="g844" transform="translate(241.9248,226.5937)">
          <path d="M 0,0 1.996,-2.621 0.29,-4.104 -1.392,-0.866 Z" style="fill:#1a2e35;fill-opacity:1;fill-rule:nonzero;stroke:none" id="path846"/>
        </g>
      </g>
    </g>
    <g id="g848">
      <g id="g850" clip-path="url(#clipPath854)">
        <g id="g856" transform="translate(266.7524,78.8613)">
          <path d="m 0,0 h 106.03 l 13.118,2.597 h 37.202 l -10.317,18.782 -16.2,10.302 c 0,0 -7.52,12.7 -9.102,14.809 -1.583,2.111 -10.539,23.737 -10.539,23.737 l -5.641,19.516 H 92.178 L 74.841,44.871 62.397,39.144 51.104,38.051 34.892,16.224 22.066,13.3 Z" style="fill:#007cff;fill-opacity:1;fill-rule:nonzero;stroke:none" id="path858"/>
        </g>
        <g id="g860">
          <g id="g862"/>
          <g id="g874">
            <g clip-path="url(#clipPath866)" opacity="0.199997" id="g872">
              <g transform="translate(423.1001,81.46)" id="g870">
                <path d="m 0,0 h -37.2 l -13.12,-2.6 h -106.03 l 22.07,13.3 12.82,2.93 16.22,21.82 11.29,1.1 12.44,5.721 17.34,44.869 h 12.37 c 0,0 0,-0.01 0.01,-0.02 l 5.63,-19.49 c 0,0 6.27,-15.14 9.25,-21.32 0.58,-1.21 1.03,-2.08 1.29,-2.42 1.59,-2.11 9.11,-14.81 9.11,-14.81 l 16.2,-10.3 z" style="fill:#ffffff;fill-opacity:1;fill-rule:nonzero;stroke:none" id="path868"/>
              </g>
            </g>
          </g>
        </g>
        <g id="g876">
          <g id="g878"/>
          <g id="g890">
            <g clip-path="url(#clipPath882)" opacity="0.100006" id="g888">
              <g transform="translate(358.9297,168.5996)" id="g886">
                <path d="M 0,0 H 12.37 L 7.85,-3.819 3.09,-1.84 -2.17,-12.81 c 0,0 -3.83,-22.66 -3.83,-24.24 0,-1.58 3.811,-7.819 3.811,-7.819 L -8.37,-64.33 -14,-46.819 l -10.589,-5.41 -7.471,-7.51 c 0,0 -13.5,-11.33 -14.29,-13.771 -0.79,-2.45 -3.95,-8.639 -5.54,-11.33 -1.58,-2.689 -0.79,3.481 -2.04,5.46 -1.25,1.981 -8.77,2.941 -8.77,2.941 l -29.48,-13.3 22.071,13.3 12.819,2.929 16.22,21.821 11.29,1.099 12.441,5.721 z" style="fill:#000000;fill-opacity:1;fill-rule:nonzero;stroke:none" id="path884"/>
              </g>
            </g>
          </g>
        </g>
        <g id="g892">
          <g id="g894"/>
          <g id="g906">
            <g clip-path="url(#clipPath898)" opacity="0.100006" id="g904">
              <g transform="translate(396.5903,110.54)" id="g902">
                <path d="M 0,0 C 0,0 -3.73,-17.72 -5.84,-29.08 H -9.2 c -0.53,3.1 -0.961,5.78 -0.961,5.78 l -3.049,19.6 2.81,20.929 C -9.82,16.02 -9.37,15.15 -9.11,14.81 -7.52,12.7 0,0 0,0" style="fill:#000000;fill-opacity:1;fill-rule:nonzero;stroke:none" id="path900"/>
              </g>
            </g>
          </g>
        </g>
      </g>
    </g>
  </g>
</svg>